<?xml version="1.0" encoding="UTF-8" standalone="no"?>
<!-- Created with Inkscape (http://www.inkscape.org/) -->

<svg
   xmlns:dc="http://purl.org/dc/elements/1.1/"
   xmlns:cc="http://creativecommons.org/ns#"
   xmlns:rdf="http://www.w3.org/1999/02/22-rdf-syntax-ns#"
   xmlns:svg="http://www.w3.org/2000/svg"
   xmlns="http://www.w3.org/2000/svg"
   xmlns:sodipodi="http://sodipodi.sourceforge.net/DTD/sodipodi-0.dtd"
   xmlns:inkscape="http://www.inkscape.org/namespaces/inkscape"
   width="147.73909"
   height="95.668747"
   id="svg5272"
   version="1.1"
   inkscape:version="0.48.2 r9819"
   sodipodi:docname="v3.svg">
  <defs
     id="defs5274">
    <inkscape:perspective
       sodipodi:type="inkscape:persp3d"
       inkscape:vp_x="0 : 526.18109 : 1"
       inkscape:vp_y="0 : 1000 : 0"
       inkscape:vp_z="744.09448 : 526.18109 : 1"
       inkscape:persp3d-origin="372.04724 : 350.78739 : 1"
       id="perspective5280" />
    <inkscape:perspective
       id="perspective5135"
       inkscape:persp3d-origin="0.5 : 0.33333333 : 1"
       inkscape:vp_z="1 : 0.5 : 1"
       inkscape:vp_y="0 : 1000 : 0"
       inkscape:vp_x="0 : 0.5 : 1"
       sodipodi:type="inkscape:persp3d" />
  </defs>
  <sodipodi:namedview
     id="base"
     pagecolor="#ffffff"
     bordercolor="#666666"
     borderopacity="1.0"
     inkscape:pageopacity="0.0"
     inkscape:pageshadow="2"
     inkscape:zoom="2.8"
     inkscape:cx="163.76922"
     inkscape:cy="63.510784"
     inkscape:document-units="px"
     inkscape:current-layer="v3"
     showgrid="false"
     inkscape:window-width="1366"
     inkscape:window-height="744"
     inkscape:window-x="0"
     inkscape:window-y="24"
     inkscape:window-maximized="1" />
  <metadata
     id="metadata5277">
    <rdf:RDF>
      <cc:Work
         rdf:about="">
        <dc:format>image/svg+xml</dc:format>
        <dc:type
           rdf:resource="http://purl.org/dc/dcmitype/StillImage" />
        <dc:title />
      </cc:Work>
    </rdf:RDF>
  </metadata>
  <g
     inkscape:label="Camada 1"
     inkscape:groupmode="layer"
     id="layer1"
     transform="translate(-191.84474,-358.81352)">
    <g
       transform="matrix(1.25,0,0,-1.25,-375.0853,711.63415)"
       id="v3">
      <g
         transform="translate(462.3213,259.0195)"
         id="g410">
        <path
           id="path412"
           style="fill:#096da9;fill-opacity:1;fill-rule:evenodd;stroke:none"
           d="M 0,0 C 0.416,-0.404 0.83,-0.769 1.248,-1.143 1.959,-1.785 2.422,-1.721 3.125,-2.27 3.42,-2.499 3.846,-2.727 4.143,-2.955 4.154,-2.963 4.166,-2.969 4.176,-2.976 l 0.683,0 C 4.707,-2.867 4.535,-2.709 4.242,-2.527 3.979,-2.329 3.711,-2.126 3.432,-1.924 3.195,-1.75 2.994,-1.577 2.822,-1.291 2.695,-0.999 2.699,-0.432 2.809,-0.188 2.916,0.055 3.238,0.561 3.248,1.143 3.26,1.845 3.293,2.939 2.906,3.611 2.639,3.041 2.037,1.611 2.016,1.035 2.002,0.692 2.08,0.264 2.281,-0.102 2.482,-0.471 2.492,-0.692 2.541,-0.923 2.523,-0.899 2.506,-0.877 2.49,-0.859 2.244,-0.58 1.971,-0.332 1.711,-0.068 1.617,0.015 1.461,0.744 1.572,1.195 1.686,1.646 2.129,2.535 2.088,3.256 2.053,3.905 1.779,4.254 1.471,4.78 1.504,4.09 0.93,2.989 0.92,2.433 0.908,1.804 0.982,1.422 1.213,0.959 1.334,0.713 1.35,0.404 1.428,0.216 1.033,0.635 0.682,1.045 0.607,1.625 0.525,2.264 -0.025,3.455 -1.432,4.086 -1.34,3.884 -1.291,3.45 -1.197,3.032 -1.102,2.613 -0.803,1.969 -0.482,1.551 -0.158,1.133 0.313,0.95 0.467,0.864 0.578,0.802 0.809,0.647 0.967,0.476 1.016,0.42 1.402,-0.007 1.74,-0.334 2.096,-0.678 2.523,-1.218 2.631,-1.471 2.242,-1.29 1.879,-1.104 1.645,-0.898 0.99,-0.318 0.355,0.079 -0.273,0.862 l -1.114,1.386 -0.791,0.863 c -0.109,0.125 -0.183,0.539 0.067,0.76 0.281,0.247 1.218,1.176 1.531,1.662 0.314,0.488 0.031,1.944 -0.01,1.824 C -0.787,6.811 -1.646,6.035 -1.971,5.691 -2.238,5.408 -2.613,4.458 -2.605,4.11 -2.6,3.764 -2.502,3.494 -2.465,3.35 c -0.279,0.287 -0.549,0.616 -0.81,1.025 -0.17,0.266 -0.288,0.479 -0.424,0.779 -0.071,0.194 -0.031,0.526 0.312,0.659 0.346,0.134 0.643,0.222 1.268,1.024 0.625,0.804 0.81,1.624 0.873,1.876 0.051,0.196 0.041,0.44 0.025,0.557 C -1.252,9.242 -1.711,8.917 -1.762,8.865 -2.529,8.084 -3.664,7.436 -3.754,6.068 -3.777,5.744 -3.84,5.545 -3.865,5.479 c -0.336,0.764 -0.53,1.483 -0.571,2.748 0.006,0.238 0.358,0.574 0.747,0.704 0.441,0.149 1.31,0.606 1.826,0.774 0.693,0.228 1.297,0.69 1.447,1.284 -0.398,-0.221 -0.715,-0.233 -1.195,-0.257 -0.713,-0.035 -1.653,-0.225 -2.35,-0.957 -0.158,-0.166 -0.381,-0.792 -0.486,-1.025 0.021,1.114 0.156,2.189 0.465,3.082 0.306,0.895 0.705,0.997 1.023,1.096 0.314,0.098 0.688,-0.065 0.908,-0.356 -0.095,-0.043 -0.181,-0.107 -0.252,-0.193 -0.416,-0.505 0.174,-1.444 0.758,-1.322 0.481,0.099 0.682,1.008 0.295,1.392 -0.195,0.192 -0.404,0.197 -0.57,0.182 -0.201,0.33 -0.651,0.59 -1.149,0.507 -0.238,-0.04 -0.4,-0.118 -0.586,-0.245 0.119,0.245 0.28,0.526 0.541,0.939 0.114,0.158 0.516,0.171 0.782,0.094 0.279,-0.162 1.507,-0.148 2.693,-0.026 0.885,0.093 1.719,0.718 1.5,0.7 -0.371,-0.03 -0.877,0.267 -1.231,0.36 -0.804,0.216 -2.39,-0.059 -2.951,-0.48 -0.228,-0.173 -0.445,-0.265 -0.584,-0.324 0.487,0.709 1.018,1.274 1.582,1.793 0.059,0.05 0.131,0.112 0.202,0.087 0.544,-0.179 1.087,-0.493 1.951,-0.59 1.646,0.023 2.537,0.482 2.367,0.495 -0.889,0.184 -2.457,0.952 -3.774,0.468 -0.179,-0.063 -0.357,-0.145 -0.484,-0.215 0.334,0.259 0.428,0.377 0.742,0.515 0.391,0.171 0.963,0.334 1.371,0.766 1.168,1.236 1.25,2.523 1.065,2.45 -0.916,-0.357 -1.822,-1.503 -2.209,-1.966 -0.332,-0.396 -0.531,-0.782 -0.594,-1.123 -0.033,-0.192 -0.123,-0.237 -0.334,-0.424 -0.068,-0.058 -0.219,-0.175 -0.408,-0.344 -0.043,0.366 0.111,0.613 0.31,0.925 0.227,0.36 0.85,1.937 0.815,2.767 -0.018,0.381 -0.135,0.715 -0.145,0.594 -0.009,-0.122 -0.187,-0.185 -0.523,-0.553 -0.506,-0.528 -1.104,-2.123 -0.977,-2.595 -0.035,-0.554 0.205,-0.727 0.289,-0.898 0.084,-0.17 0.063,-0.395 -0.08,-0.544 -0.474,-0.444 -1.004,-0.975 -1.631,-1.942 -0.048,0.199 -0.314,0.608 -0.158,0.958 0.19,0.423 0.899,2.426 0.758,3.303 -0.043,0.259 -0.359,1.002 -0.34,0.812 0.02,-0.19 -0.228,-0.618 -0.416,-1.03 -0.281,-0.396 -0.871,-1.809 -0.82,-2.463 0.053,-0.651 0.51,-1.105 0.648,-1.348 0.108,-0.197 0.227,-0.423 0.127,-0.593 -0.463,-0.775 -0.842,-1.637 -1.023,-2.615 -0.221,0.297 -0.293,0.699 -0.236,1.047 0.08,0.476 0.283,2.344 -0.038,2.898 -0.253,0.432 -0.957,1.287 -0.877,1.114 0.082,-0.171 -0.05,-0.713 -0.078,-1.26 -0.029,-0.546 -0.277,-2.1 -0.035,-2.696 0.244,-0.595 0.59,-0.769 0.813,-0.918 0.224,-0.148 0.375,-0.336 0.363,-0.562 -0.102,-0.719 -0.139,-1.26 -0.16,-1.747 -0.516,0.692 -0.154,0.76 -0.559,1.479 -0.222,0.395 -1.488,1.981 -2.334,2.299 0.119,-0.432 0.115,-0.73 0.108,-1.029 C -7.549,10.545 -6.461,9.582 -5.828,9.256 -5.242,8.955 -4.742,8.765 -4.76,8.134 -5.178,8.695 -6.385,8.771 -6.834,8.035 -7.148,8.097 -7.469,7.916 -7.574,7.605 -7.689,7.268 -7.623,6.545 -7.285,6.434 -6.947,6.32 -6.459,6.89 -6.354,7.2 c 0.108,0.31 -0.011,0.586 -0.25,0.741 0.262,0.59 1.639,0.512 1.87,-0.318 0.007,-0.1 0.025,-0.225 0.035,-0.338 C -4.914,7.479 -5.803,7.572 -5.898,6.662 -6.035,6.631 -6.166,6.559 -6.234,6.48 -6.625,6.035 -6.289,5.011 -5.695,5.068 c 0.574,0.057 0.92,1.087 0.437,1.465 -0.137,0.108 -0.254,0.143 -0.4,0.164 0,0.467 0.687,0.627 0.994,0.246 C -4.322,5.604 -3.766,4.275 -2.775,3.256 -3.162,3.238 -3.59,3.451 -3.963,3.66 -4.348,3.879 -5.549,5.021 -6.756,5.074 -7.145,5.092 -7.977,5.148 -7.762,5.024 -7.549,4.9 -7.053,4.436 -6.75,4.148 c 0.303,-0.286 1.406,-1.203 2.123,-1.334 0.717,-0.128 1.008,0.178 1.336,0.254 0.33,0.078 0.635,0.029 0.768,-0.07 0.267,-0.275 0.507,-0.562 0.761,-0.896 -0.217,0.095 -0.486,0.095 -0.769,0.199 -0.649,0.234 -1.123,0.162 -2.24,-0.106 -0.663,-0.157 -2.108,-0.004 -2.612,0.028 0.264,-0.33 2.135,-1.258 3.014,-1.131 0.695,0.1 0.99,0.422 1.449,0.751 0.455,0.329 1.178,0.148 1.422,-0.102 0.242,-0.323 0.42,-0.569 0.666,-0.867 0.117,-0.145 0.225,-0.27 0.336,-0.392 C -0.807,0.615 -1.184,0.857 -1.377,0.919 -1.986,1.109 -3.266,0.795 -3.863,0.477 -4.219,0.285 -4.801,-0.126 -5.225,-0.243 -4,-1.032 -1.975,-0.003 -1.42,0.26 -0.83,0.541 -0.256,0.213 0,0 m 5.92,-2.976 c 0.109,0.101 0.234,0.218 0.375,0.353 0.289,0.244 0.613,0.462 0.857,0.656 0.244,0.193 0.399,0.383 0.735,0.397 0.254,0.009 1.129,-0.174 1.802,-0.194 0.19,-0.007 0.551,0.164 0.69,0.192 1.047,0.261 1.719,0.64 1.523,0.586 -0.705,-0.191 -2.547,0.373 -3.254,0.246 0.112,0.097 0.229,0.202 0.356,0.316 0.166,0.15 0.322,0.293 0.471,0.43 0.4,0.005 1.994,-0.28 2.806,-0.142 0.813,0.14 1.274,0.699 1.438,0.86 -0.395,-0.062 -1.1,0.037 -1.459,0.1 -0.18,0.031 -1.5,0.307 -1.666,0.322 0.107,0.12 0.211,0.244 0.316,0.374 0.373,0.458 0.621,0.868 0.903,1.259 0.267,0.371 0.91,0.134 1.035,-0.257 -0.168,0.001 -0.332,-0.051 -0.461,-0.167 -0.451,-0.399 -0.039,-1.41 0.539,-1.441 0.599,-0.031 0.857,0.965 0.435,1.391 -0.074,0.075 -0.16,0.131 -0.254,0.166 -0.087,0.375 -0.351,0.703 -0.943,0.74 0.24,0.217 0.451,0.33 0.883,0.352 C 13.479,3.583 14,3.326 14.133,2.912 13.842,2.838 13.635,2.613 13.65,2.281 c 0.016,-0.33 0.346,-1.027 0.723,-1.027 0.379,0 0.668,0.67 0.652,1.027 -0.017,0.332 -0.291,0.606 -0.63,0.647 -0.141,0.58 -0.786,0.91 -1.356,0.904 C 12.766,3.829 12.523,3.75 12.32,3.637 c 0.229,0.408 0.438,0.848 0.616,1.291 0.076,0.187 0.326,0.433 0.851,0.055 C 14.209,4.547 15.896,3.061 17.295,3.474 16.916,3.699 16.473,4.242 16.184,4.516 15.697,4.977 14.549,5.65 13.91,5.598 13.654,5.576 13.318,5.506 13.088,5.381 c 0.129,0.313 0.379,0.443 0.697,0.497 0.319,0.056 1.311,0.824 1.885,1.291 0.443,0.362 0.779,1.157 0.881,1.595 C 15.783,8.565 14.891,8.566 13.738,6.75 13.504,6.346 13.273,5.988 13.217,5.904 c 0.148,0.645 0.25,1.39 0.277,2.255 0.117,0.103 0.488,0.573 0.582,0.726 0.299,0.5 0.43,1.03 0.248,1.539 -0.142,-0.285 -0.588,-0.662 -0.847,-0.856 -0.014,0.248 -0.034,0.516 -0.065,0.799 0.086,0.072 0.19,0.16 0.344,0.264 0.437,0.297 1.334,-0.728 1.91,-1.055 0.518,-0.295 1.447,-0.378 1.986,-0.273 -0.381,0.427 -1.554,1.686 -2.812,1.721 -0.346,0.01 -0.736,-0.046 -1.027,-0.18 0.179,0.237 0.177,0.437 0.449,0.531 0.271,0.092 1.836,0.805 2.345,0.982 0.661,0.252 1.051,0.641 1.219,0.969 -0.457,-0.049 -1.219,-0.045 -1.883,-0.18 -0.738,-0.152 -1.871,-0.914 -1.951,-1.453 -0.117,-0.455 -0.375,-0.875 -0.597,-1.115 -0.041,0.358 -0.102,0.75 -0.188,1.158 0.145,0.172 0.314,0.469 0.451,0.922 0.16,0.534 0.795,0.807 1.242,1.521 0.252,0.401 0.424,2.296 0.522,2.841 -0.637,-0.362 -0.875,-1.147 -1.178,-1.594 -0.426,-0.627 -0.609,-1.45 -0.721,-2.035 -0.093,-0.488 -0.177,-1.149 -0.375,-1.397 -0.252,1.067 -0.642,1.987 -1.441,3.188 -0.172,0.239 0.051,0.648 0.178,0.902 0.127,0.252 0.357,0.447 0.398,1.054 0.059,0.887 -0.172,2.33 -0.347,3.063 -0.372,-0.339 -0.846,-1.228 -0.889,-1.728 -0.047,-0.542 0.076,-1.807 0.215,-2.203 0.134,-0.396 0.134,-0.555 0.158,-0.788 -0.385,0.467 -0.793,0.643 -1.051,1.282 -0.062,0.338 -0.527,1.675 -0.68,2.177 C 9.484,19.52 9.023,19.777 8.436,20.562 8.357,20.406 8.275,19.307 8.338,18.664 8.475,17.256 10.539,16.322 11.346,15.195 10.891,15.33 10.588,15.471 10.16,15.82 9.789,16.121 8.479,16.933 7.537,17.089 7.109,17.162 6.699,17.032 6.791,17.014 6.885,16.996 7.01,16.865 7.373,16.453 c 0.361,-0.41 1.504,-1.174 2.121,-1.334 0.617,-0.162 0.885,-0.027 1.311,-0.017 0.252,0.005 0.711,-0.123 0.881,-0.37 0.08,-0.113 0.156,-0.229 0.23,-0.348 -0.273,0.155 -0.525,0.239 -0.84,0.231 C 10.631,14.605 10.207,14.3 10.078,13.943 9.912,13.93 9.707,13.891 9.557,13.67 c -0.303,-0.443 0.091,-1.301 0.584,-1.32 0.599,-0.022 0.98,0.998 0.464,1.425 -0.087,0.073 -0.187,0.121 -0.289,0.148 0.159,0.321 0.497,0.49 0.887,0.46 0.438,-0.037 0.85,-0.258 1.033,-0.612 0.315,-0.607 0.547,-1.308 0.703,-2.021 -0.181,-0.203 -0.349,-0.385 -0.445,-0.643 -0.148,-0.404 -0.027,-0.863 0.059,-1.129 -0.211,-0.222 -0.399,-0.482 -0.51,-0.799 -0.123,0.206 -0.166,0.557 -0.152,0.833 0.093,0.658 -0.053,1.929 -0.289,2.39 -0.186,0.36 -0.18,0.422 -0.469,0.719 0.031,-0.166 -0.166,-0.84 -0.285,-1.314 -0.121,-0.477 -0.186,-1.345 0.304,-1.924 L 11.686,9.277 11.971,8.973 C 11.92,8.784 11.895,8.588 11.9,8.386 11.916,7.751 12.234,6.984 12.529,6.524 12.824,6.064 12.887,5.913 12.848,5.754 L 12.266,4.27 c -0.041,0.22 -0.09,0.452 -0.026,0.873 0.065,0.423 -0.545,2.013 -0.75,2.302 -0.334,0.475 -1.094,0.951 -1.373,1.35 -0.013,-0.215 0,-1.1 0.279,-1.913 0.192,-0.56 1.092,-1.739 1.348,-1.986 C 12.002,4.648 12.166,4.113 12.033,3.852 11.982,3.756 11.938,3.666 11.895,3.586 11.793,3.952 11.482,4.193 11.195,4.242 10.807,4.309 10.594,4.196 10.41,4.07 10.045,4.188 9.736,4.017 9.604,3.68 9.475,3.344 9.531,2.68 9.883,2.541 c 0.349,-0.139 0.863,0.302 0.994,0.639 0.076,0.174 0.076,0.324 0.006,0.478 -0.108,0.231 -0.207,0.264 -0.237,0.288 0.147,0.097 0.325,0.117 0.555,0.052 C 11.506,3.914 11.768,3.438 11.578,3.04 11.199,2.443 10.762,1.812 10.264,1.305 10.201,1.242 10.141,1.182 10.084,1.126 9.74,1.065 9.434,0.901 9.189,0.619 8.949,0.344 8.842,0.107 8.783,-0.049 8.74,-0.085 8.699,-0.125 8.658,-0.165 8.484,-0.331 8.168,-0.602 7.893,-0.832 7.887,-0.426 7.934,-0.139 8.102,0.156 8.279,0.467 8.512,1.332 8.736,1.951 9.047,2.812 9.035,3.688 8.746,4.252 8.529,3.833 8.352,3.683 8.035,3.35 7.477,2.758 7.227,1.052 7.393,0.353 7.496,-0.188 7.828,-0.857 7.535,-1.126 7.311,-1.334 7.008,-1.541 6.824,-1.689 6.549,-1.91 6.271,-2.16 6.023,-2.376 5.977,-2.134 5.92,-1.744 6.068,-1.451 6.217,-1.161 6.576,-0.234 6.705,0.342 6.834,0.919 6.613,2.023 6.107,2.504 6.105,1.824 5.541,1.359 5.373,0.805 5.322,0.623 5.24,-0.432 5.248,-0.621 5.273,-0.881 5.316,-1.334 5.414,-1.58 5.533,-1.879 5.773,-2.256 5.711,-2.551 5.557,-2.711 5.393,-2.871 5.27,-2.976 l 0.65,0 z M -5.129,9.078 c -0.293,0.272 -2.1,1.276 -2.189,2.162 -0.036,0.342 -0.034,0.738 -0.059,0.99 0.631,-0.369 1.76,-1.855 1.926,-2.182 0.146,-0.292 0.16,-0.536 0.322,-0.97 M -6.047,6.317 c -0.26,-0.296 -0.047,-1.061 0.34,-1.022 0.373,0.035 0.607,0.832 0.285,1.084 -0.185,0.146 -0.467,0.12 -0.625,-0.062 m 16.404,10.121 c -0.22,0.419 -0.654,2.261 -1.156,2.869 -0.297,0.359 -0.572,0.691 -0.689,0.928 0.017,-0.387 -0.147,-1.858 0.523,-2.569 0.281,-0.298 0.928,-0.957 1.322,-1.228 m -10.806,0.32 c 0.051,0.533 0.91,1.44 1.248,1.861 0.301,0.374 0.935,0.97 1.363,1.083 C 2.141,19.518 1.768,18.486 1.197,17.803 0.662,17.077 -0.129,16.929 -0.449,16.758 m 0.076,3.337 c -0.647,-0.38 -1.227,-2.126 -1.301,-2.711 -0.039,-0.307 -0.127,-0.318 0.195,-0.948 0.106,0.377 0.262,0.475 0.563,1.197 0.299,0.723 0.686,1.724 0.543,2.462 M -0.727,16.14 c 0.116,0.094 0.709,0.256 1.247,0.249 C 1.193,16.381 2.164,16.096 2.9,15.888 2.447,15.662 1.893,15.633 1.459,15.592 0.572,15.508 -0.246,15.855 -0.727,16.14 m -2.224,2.426 c -0.182,-0.449 -0.569,-1.216 -0.77,-1.7 -0.402,-0.958 -0.357,-1.856 0.057,-2.438 0.01,0.279 0.387,1.285 0.5,1.804 0.478,1.323 0.351,1.977 0.213,2.334 m 0.529,-4.399 c 0.246,0.151 0.967,0.567 1.414,0.616 1.098,0.203 1.531,0.098 2.649,-0.265 C 1.568,14.465 1.107,14.201 0.74,14.135 0.068,14.013 -1.701,13.849 -2.422,14.167 m -3.049,1.272 c -0.041,-0.326 -0.236,-2.195 -0.187,-2.769 0.054,-0.602 0.15,-1.092 0.773,-1.461 -0.099,0.455 0.022,0.943 0.082,1.627 0.135,1.519 -0.199,2.268 -0.668,2.603 m 1.41,-6.44 c 0.11,0.784 1.381,1.421 2.315,1.532 0.379,0.047 0.838,0.1 1.014,0.145 C -1.033,10.167 -1.469,10.115 -1.973,9.938 -2.527,9.744 -3.518,9.247 -4.061,8.999 m 0.448,-3.121 c 0.056,0.701 0.767,1.833 1.422,2.335 0.404,0.31 0.818,0.762 0.906,0.856 C -1.313,8.947 -1.484,8.565 -1.578,8.271 -1.791,7.611 -2.844,5.974 -3.613,5.878 M -2.4,3.817 c -0.006,0.611 0.281,1.531 0.771,1.928 0.377,0.307 0.838,1.007 0.959,1.189 C -0.584,6.33 -0.633,5.638 -1.045,5.284 -1.311,5.058 -2.229,4.184 -2.4,3.817 m -4.873,1.066 c 0,0 0.574,-0.601 1.074,-0.994 0.265,-0.207 1.935,-1.393 2.601,-0.647 -0.406,0.159 -0.828,0.555 -1.357,0.873 -0.588,0.354 -1.164,0.85 -2.318,0.768 m 4.685,-2.684 c -0.32,0.139 -1.254,0.026 -2.035,-0.209 -0.58,-0.176 -2.002,0.064 -2.346,0.038 0.981,-0.473 2.539,-0.762 2.836,-0.643 0.58,0.195 0.947,0.701 1.545,0.814 m 1.434,1.569 C -1.059,3.18 -1.029,1.935 0.637,0.932 0.453,1.287 0.439,1.752 0.277,2.213 0.096,2.729 -0.768,3.643 -1.154,3.768 M 1.375,1.004 C 1.047,1.681 1.139,2.877 1.365,3.488 1.492,3.832 1.574,4.089 1.576,4.34 2.023,3.529 1.904,2.631 1.705,2.084 1.547,1.658 1.375,1.293 1.375,1.004 M 2.59,-0.308 C 2.359,0.217 2.064,0.824 2.27,1.512 2.4,1.938 2.746,2.879 2.908,3.187 3.111,2.633 3.07,1.493 3.07,1.223 3.07,0.512 2.721,0.266 2.59,-0.308 M 5.764,-1.744 C 5.385,-1.365 5.396,0.471 5.752,1.074 6.027,1.54 6.139,1.779 6.195,2.017 6.523,1.395 6.551,0.883 6.41,0.199 6.207,-0.393 5.938,-1.294 5.764,-1.744 m 1.943,0.318 c 0.148,0.192 0.434,0.457 0.836,0.49 0.627,0.057 1.244,-0.023 1.67,-0.087 0.363,-0.057 1.166,-0.186 1.408,-0.134 -1.469,-0.596 -1.744,-0.489 -2.426,-0.398 -0.453,0.054 -1.211,0.192 -1.488,0.129 m 0.074,1.198 C 7.721,-0.043 7.662,0.178 7.637,0.46 7.555,1.375 7.688,2.652 8.072,3.08 8.316,3.353 8.625,3.694 8.723,3.838 8.848,3.25 8.713,2.654 8.539,2.098 8.289,1.285 7.91,0.237 7.781,-0.228 M 9.047,0.096 C 9.184,0.305 9.484,0.749 9.975,0.876 10.914,1.122 12.613,0.469 13.436,0.578 13.262,0.451 12.861,0.203 12.383,0.08 11.637,-0.108 9.432,0.295 9.047,0.096 m 4.131,2.082 C 13.461,1.893 13.311,1.12 12.92,1.141 c -0.375,0.019 -0.672,0.803 -0.371,1.07 0.176,0.154 0.457,0.141 0.629,-0.033 m 1.146,0.551 c -0.246,0 -0.437,-0.186 -0.426,-0.418 0.012,-0.235 0.225,-0.799 0.471,-0.799 0.246,0 0.43,0.564 0.42,0.799 -0.012,0.232 -0.221,0.418 -0.465,0.418 M 12.037,4.724 C 12.191,5.345 11.629,6.915 11.184,7.503 10.91,7.859 10.486,8.108 10.26,8.398 10.301,7.882 10.582,6.967 10.721,6.688 11.064,5.992 11.768,5.16 12.037,4.724 m 1.342,0.619 c 0.848,0.436 2.172,-0.518 2.607,-0.92 0.289,-0.268 0.842,-0.786 0.993,-0.884 -0.76,-0.074 -1.67,0.491 -2.008,0.756 -0.514,0.404 -1.215,0.973 -1.592,1.048 m 0.053,0.604 c 0.394,0.739 1.213,1.809 1.875,2.174 0.463,0.256 0.824,0.373 1.004,0.365 C 15.955,7.885 15.74,7.359 15.195,7.014 14.865,6.805 14.029,5.979 13.432,5.947 m -0.971,1.136 c -0.041,0.36 -0.082,0.671 -0.076,0.851 0.025,0.752 0.408,1.123 0.82,1.435 -0.002,0.1 -0.004,0.199 -0.006,0.301 -0.008,0.179 -0.015,0.362 -0.033,0.549 C 12.539,9.795 12.084,9.144 12.117,8.365 12.141,7.873 12.303,7.418 12.461,7.083 m 0.723,0.834 C 13.047,7.814 12.914,7.711 12.809,7.578 12.533,7.23 12.645,6.928 12.709,6.764 c 0.09,-0.223 0.205,-0.366 0.273,-0.479 0.108,0.511 0.168,1.028 0.202,1.632 m -0.19,3.572 c -0.123,-0.141 -0.223,-0.272 -0.275,-0.426 -0.088,-0.26 -0.086,-0.655 0.013,-0.917 0.131,0.106 0.27,0.202 0.414,0.288 -0.033,0.345 -0.083,0.702 -0.152,1.055 M 12.545,7.48 c -0.106,0.657 0.07,1.304 0.713,1.75 0.297,0.208 0.84,0.684 0.951,0.804 0.068,-0.285 -0.07,-0.7 -0.268,-1.026 C 13.471,8.223 12.607,7.73 12.545,7.48 m -1.283,5.278 c -0.16,-0.551 -0.33,-1.354 -0.301,-1.799 0.006,-0.53 0.441,-1.234 0.801,-1.549 -0.071,0.352 -0.043,0.891 -0.045,1.462 -0.002,0.54 -0.235,1.673 -0.455,1.886 m 2.32,0.165 c 0.156,0.677 0.178,1.208 0.648,2.058 0.233,0.419 0.743,1.615 0.961,1.716 -0.296,-0.658 -0.068,-1.693 -0.443,-2.419 -0.148,-0.288 -0.9,-0.833 -1.166,-1.355 m -3.107,0.706 c 0.32,-0.291 0.052,-1.098 -0.338,-1.088 -0.305,0.01 -0.617,0.762 -0.324,1.069 0.16,0.169 0.472,0.175 0.662,0.019 M 7.16,16.953 c 0.36,-0.281 0.565,-0.57 1.067,-0.959 0.457,-0.435 1.619,-0.99 2.437,-0.708 -0.408,0.191 -0.549,0.423 -1.316,0.88 C 8.58,16.623 7.59,16.933 7.16,16.953 m 4.401,-1.029 c -0.123,0.597 -0.497,1.824 -0.239,2.72 0.09,0.477 0.397,1.02 0.524,1.249 0.164,-0.546 0.226,-2.159 0.199,-2.532 -0.059,-0.802 -0.297,-1.093 -0.484,-1.437 M 14.074,11.4 c 0.274,0.192 1.918,0.913 2.52,1.122 0.437,0.154 0.81,0.411 0.974,0.633 -0.177,0.126 -1.554,-0.069 -2.173,-0.361 -0.793,-0.368 -1.237,-1.015 -1.321,-1.394 m 0.039,-0.601 c 0.145,0.047 0.901,0.14 1.168,0.033 0.795,-0.252 1.744,-0.988 2.121,-1.432 -0.199,-0.076 -0.66,0.008 -0.865,0.038 -1.121,0.164 -1.627,1.029 -2.424,1.361 M 10.398,3.849 C 10.17,3.938 9.918,3.834 9.832,3.617 9.748,3.398 9.734,2.84 9.961,2.75 10.188,2.661 10.57,3.074 10.656,3.291 10.74,3.51 10.625,3.76 10.398,3.849 M -6.826,7.827 C -6.607,7.755 -6.49,7.519 -6.566,7.299 -6.639,7.08 -6.99,6.605 -7.209,6.676 -7.428,6.75 -7.434,7.344 -7.357,7.563 c 0.074,0.218 0.314,0.335 0.531,0.264 m 4.683,4.431 c -0.255,-0.341 0.137,-1.088 0.518,-1.014 0.297,0.059 0.488,0.85 0.137,1.106 -0.194,0.138 -0.502,0.091 -0.655,-0.092 M -0.889,0.512 C -1.578,1.168 -3.168,0.609 -3.701,0.33 -4.055,0.146 -4.734,-0.212 -4.904,-0.266 c 0.709,-0.281 1.742,0.026 2.142,0.194 0.606,0.258 1.491,0.613 1.873,0.584" />
      </g>
      <g
         transform="translate(466.8877,274.3828)"
         id="g414">
        <path
           id="path416"
           style="fill:#096da9;fill-opacity:1;fill-rule:evenodd;stroke:none"
           d="m 0,0 c -0.145,0.035 -0.264,0.125 -0.338,0.26 -0.174,0.32 -0.012,0.712 0.326,0.804 l 0,2.098 -0.396,0 C -0.443,3.018 -0.533,2.896 -0.67,2.821 -0.998,2.643 -1.402,2.819 -1.48,3.174 c -0.151,0.031 -0.278,0.123 -0.356,0.265 -0.18,0.329 0,0.733 0.356,0.811 0.031,0.15 0.123,0.278 0.263,0.354 0.324,0.177 0.723,0.005 0.809,-0.34 l 0.396,0 0,0.399 C -0.15,4.699 -0.266,4.788 -0.338,4.919 -0.514,5.244 -0.346,5.641 -0.002,5.727 0.031,5.88 0.121,6.009 0.266,6.086 0.592,6.264 0.996,6.088 1.076,5.732 1.232,5.707 1.365,5.613 1.445,5.469 1.625,5.139 1.445,4.734 1.09,4.656 l 0,-0.392 0.4,0 C 1.527,4.407 1.617,4.529 1.752,4.604 2.08,4.782 2.486,4.605 2.564,4.25 2.713,4.215 2.836,4.125 2.912,3.986 3.09,3.66 2.916,3.257 2.564,3.176 2.533,3.026 2.441,2.898 2.301,2.821 1.977,2.645 1.578,2.814 1.492,3.162 l -0.402,0 0,-2.09 C 1.238,1.039 1.367,0.949 1.445,0.809 1.627,0.474 1.441,0.064 1.076,-0.006 1.043,-0.155 0.951,-0.282 0.813,-0.358 0.482,-0.537 0.076,-0.358 0,0" />
      </g>
      <g
         transform="translate(467.0986,279.9893)"
         id="g418">
        <path
           id="path420"
           style="fill:#ffffff;fill-opacity:1;fill-rule:evenodd;stroke:none"
           d="m 0,0 0,-0.085 -0.07,0 c -0.211,0 -0.323,-0.164 -0.323,-0.328 0,-0.162 0.112,-0.328 0.323,-0.328 l 0.07,0 0,-0.826 -0.826,0 0,0.084 c 0,0.212 -0.166,0.324 -0.328,0.324 -0.164,0 -0.326,-0.112 -0.326,-0.324 l 0,-0.084 -0.086,0 c -0.213,0 -0.325,-0.164 -0.325,-0.328 0,-0.162 0.112,-0.325 0.325,-0.325 l 0.086,0 0,-0.086 c 0,-0.123 0.054,-0.222 0.152,-0.277 0.103,-0.062 0.244,-0.062 0.348,0 0.099,0.055 0.154,0.154 0.154,0.277 l 0,0.086 0.826,0 0,-2.524 -0.07,0 c -0.211,0 -0.323,-0.165 -0.323,-0.327 0,-0.162 0.112,-0.328 0.323,-0.328 l 0.07,0 0,-0.086 c 0,-0.213 0.164,-0.324 0.328,-0.324 0.16,0 0.328,0.111 0.328,0.324 l 0,0.086 0.098,0 c 0.213,0 0.324,0.166 0.324,0.328 0,0.162 -0.111,0.327 -0.324,0.327 l -0.098,0 0,2.524 0.832,0 0,-0.086 c 0,-0.123 0.055,-0.222 0.153,-0.277 0.105,-0.062 0.244,-0.062 0.347,0 0.1,0.055 0.155,0.154 0.155,0.277 l 0,0.086 0.078,0 c 0.213,0 0.326,0.163 0.326,0.325 0,0.164 -0.113,0.328 -0.326,0.328 l -0.078,0 0,0.084 c 0,0.212 -0.166,0.324 -0.329,0.324 -0.162,0 -0.326,-0.112 -0.326,-0.324 l 0,-0.084 -0.832,0 0,0.826 0.098,0 c 0.213,0 0.324,0.166 0.324,0.328 0,0.164 -0.111,0.328 -0.324,0.328 l -0.098,0 0,0.085 C 0.656,0.213 0.488,0.323 0.328,0.323 0.164,0.323 0,0.213 0,0" />
      </g>
      <g
         transform="translate(466.0537,269.082)"
         id="g422">
        <path
           id="path424"
           style="fill:#096da9;fill-opacity:1;fill-rule:evenodd;stroke:none"
           d="M 0,0 C -0.111,0.082 -0.078,0.231 -0.037,0.232 0.008,0.186 0.1,0.031 0.287,0.026 0.359,0.023 0.412,0.028 0.381,0.067 0.283,0.188 0.328,0.289 0.375,0.299 0.406,0.234 0.535,0.082 0.701,0.045 0.752,0.034 0.834,0.037 0.803,0.084 0.732,0.182 0.779,0.297 0.84,0.326 0.854,0.293 0.926,0.045 1.133,0.045 1.338,0.045 1.414,0.293 1.426,0.326 1.484,0.297 1.533,0.182 1.465,0.084 1.432,0.037 1.514,0.034 1.564,0.045 1.73,0.082 1.857,0.234 1.891,0.299 1.938,0.289 1.982,0.188 1.885,0.067 1.854,0.028 1.908,0.023 1.979,0.026 2.166,0.031 2.256,0.186 2.303,0.232 2.342,0.231 2.377,0.082 2.266,0 m 0,0 C 2.297,-0.008 2.373,-0.025 2.439,0.036 2.582,0.17 2.541,0.375 2.373,0.468 2.355,0.477 2.336,0.486 2.316,0.493 2.297,0.5 2.277,0.505 2.254,0.509 L 2.248,0.51 C 1.75,0.586 1.186,0.613 0.621,0.592 0.518,0.588 0.406,0.582 0.293,0.572 0.184,0.564 0.074,0.555 -0.031,0.543 l -0.006,0 C -0.258,0.518 -0.412,0.256 -0.236,0.07 -0.182,0.016 -0.072,-0.008 -0.002,0 m 0.832,-6.105 0.795,0 c 0,0 -0.133,-0.069 -0.277,-0.138 C 1.201,-6.312 0.816,-6.096 0.83,-6.105 M 3.955,0.659 C 4.074,0.408 4.357,0.346 4.59,0.268 4.686,0.658 4.834,0.868 4.943,0.99 5.1,1.167 5.332,1.352 5.596,1.461 5.576,1.545 5.594,1.635 5.654,1.703 5.754,1.816 5.936,1.822 6.057,1.717 6.18,1.607 6.195,1.428 6.096,1.313 6.033,1.244 5.945,1.215 5.857,1.225 5.797,0.956 5.648,0.725 5.479,0.527 5.295,0.332 5.172,0.205 4.979,0.121 5.229,0.023 5.48,-0.168 5.605,-0.408 L 5.439,-0.473 C 5.254,-0.23 5.047,-0.139 4.83,-0.07 L 4.037,-0.852 C 4.9,-1.75 4.467,-3.153 3.877,-4.211 l 0.176,-0.096 -0.196,-0.55 -0.191,-0.006 -0.002,0.114 0.244,0.235 -0.285,-0.062 -0.102,0.181 0.03,0.367 -0.178,-0.29 -0.31,0.107 0.007,0.346 -0.203,-0.342 -0.316,-0.016 c -0.035,0.118 -0.139,0.446 -0.139,0.446 l 0.092,0.201 -0.252,-0.067 -0.254,0.115 -0.004,0.346 c 0,0 -0.15,-0.263 -0.174,-0.275 C 1.799,-3.469 1.416,-3.635 1.416,-3.635 l -0.082,0.45 0.109,0.21 -0.24,-0.068 -0.187,0.116 -0.143,0.372 -0.064,-0.39 C 0.816,-2.953 0.652,-2.99 0.51,-3.005 l -0.131,-0.032 -0.01,0.106 0.268,0.222 -0.34,-0.061 -0.049,0.178 0.195,0.264 -0.269,-0.115 -0.385,0.115 0.012,0.311 -0.205,-0.307 -0.244,-0.047 c -0.038,0.115 -0.239,0.453 -0.239,0.453 l 0.094,0.197 -0.252,-0.064 -0.254,0.114 -0.002,0.347 c 0,0 -0.131,-0.344 -0.146,-0.344 -0.016,10e-4 -0.366,-0.02 -0.373,-0.034 l -0.082,0.45 0.113,0.179 0.002,0 0,0.002 c 0.043,0.039 0.088,0.068 0.109,0.069 0.157,-0.019 0.588,-0.086 0.764,-0.109 C -1.023,-1.131 -1.311,-1.19 -1.5,-1.23 l 0.498,-0.27 0.686,-0.383 1.66,-0.922 2.293,-1.272 c 0.531,0.967 0.92,2.222 0.195,3.023 L 3.705,-1.182 c 0.008,0.004 0.137,-0.201 0.162,-0.302 0.012,-0.047 -0.361,-0.08 -0.523,0.121 -0.231,0.056 -0.512,0.144 -0.516,0.161 l 0.666,0.021 0.078,0.097 c -0.131,-0.011 -0.9,0.191 -0.931,0.229 l 0.728,-0.004 c 0.002,0 0.172,-0.12 0.227,-0.195 l 0.101,0.126 c -0.465,0.43 -1.269,0.702 -2.621,0.709 -0.906,0.004 -1.574,-0.043 -2.326,-0.279 -0.281,-0.09 -0.564,-0.227 -0.775,-0.434 l 0.211,-0.115 -0.221,-0.063 -0.242,0.117 -0.116,0.179 -0.033,-0.199 c 0,0 -0.279,-0.071 -0.375,-0.107 l 0.338,0.431 0.172,-0.096 c 0.24,0.252 0.561,0.422 0.875,0.519 0.309,0.098 0.605,0.165 0.906,0.212 -0.113,0.111 -0.162,0.279 -0.117,0.431 0.025,0.086 0.078,0.158 0.147,0.217 -0.022,0 -0.043,-0.002 -0.065,-0.002 -0.59,-0.012 -0.924,0.56 -0.928,1.066 -0.004,0.594 0.317,1.126 0.551,1.734 0.063,-0.299 0.32,-0.589 0.352,-0.835 0.148,0.4 0.523,0.6 0.611,1.037 C 0.236,3.383 0.338,3.115 0.365,2.604 0.563,2.871 0.793,3.127 0.885,3.482 1.117,3.198 1.115,2.865 1.082,2.597 1.189,2.797 1.541,3.146 1.641,3.594 2.119,3.34 1.98,2.826 1.84,2.465 1.986,2.674 2.123,2.836 2.322,2.992 2.521,3.15 2.723,3.268 2.887,3.428 3.023,3.012 2.93,2.428 2.762,2.063 2.848,2.183 2.988,2.322 3.203,2.492 3.553,2.77 3.615,2.899 3.74,3.211 3.805,2.854 3.922,2.226 3.773,1.678 3.629,1.129 3.213,0.779 2.92,0.709 2.625,0.637 2.631,0.652 2.568,0.646 2.748,0.551 2.875,0.375 2.857,0.195 2.848,0.083 2.791,-0.021 2.709,-0.096 2.693,-0.107 2.678,-0.12 2.662,-0.13 3.092,-0.234 3.561,-0.385 3.891,-0.689 l 0.57,0.732 C 4.221,0.137 3.881,0.316 3.814,0.584 L 3.955,0.659 z M 5.969,1.615 C 6.033,1.561 6.041,1.467 5.988,1.406 5.936,1.348 5.842,1.345 5.779,1.4 5.715,1.455 5.709,1.549 5.76,1.607 5.813,1.668 5.906,1.672 5.969,1.615 M 5.082,0.872 C 4.9,0.67 4.58,0.094 4.898,0.283 4.955,0.315 4.838,0.32 4.854,0.367 4.943,0.365 4.943,0.361 5.045,0.369 5.078,0.371 4.926,0.484 4.93,0.52 4.961,0.521 5.043,0.525 5.166,0.522 5.209,0.521 5.043,0.6 5.041,0.662 c 0.076,0 0.164,0.002 0.24,-0.004 0.032,0.037 -0.183,0.123 -0.136,0.157 0.068,0 0.166,0.003 0.267,0.007 0.045,0 -0.191,0.11 -0.156,0.157 0.09,-0.003 0.183,0 0.258,0 0.039,0 -0.116,0.097 -0.088,0.15 l 0.179,0 C 5.695,1.132 5.727,1.27 5.697,1.297 5.66,1.332 5.469,1.299 5.082,0.872 m -3.756,-6.69 0.715,0 c 0,0 -0.113,-0.084 -0.24,-0.161 -0.125,-0.072 -0.49,0.172 -0.475,0.161 m 0.363,0.275 0.7,0.014 C 2.307,-5.602 2.258,-5.64 2.174,-5.705 2.088,-5.771 1.674,-5.531 1.689,-5.543 m 0.305,0.29 0.666,0 C 2.605,-5.309 2.557,-5.368 2.494,-5.42 c -0.06,-0.053 -0.515,0.179 -0.5,0.167 m 0.981,1.655 0.685,-0.004 c 0,0 -0.015,-0.101 -0.088,-0.175 -0.074,-0.075 -0.621,0.193 -0.597,0.179 M 3.08,-3.31 3.764,-3.313 c 0,0 -0.016,-0.103 -0.088,-0.175 C 3.605,-3.563 3.057,-3.297 3.08,-3.31 m 0.08,0.334 0.717,-0.004 c 0,0 -0.018,-0.104 -0.094,-0.176 C 3.707,-3.23 3.139,-2.965 3.16,-2.976 M 3.262,-2.301 4,-2.307 c 0,0 -0.002,-0.105 -0.064,-0.179 -0.059,-0.075 -0.7,0.195 -0.674,0.185 M 3.221,-2.617 3.959,-2.621 c 0,0 -0.014,-0.102 -0.092,-0.175 -0.076,-0.075 -0.67,0.191 -0.646,0.179 m 0.031,0.651 0.738,-0.003 c 0,0 0.031,-0.134 -0.013,-0.199 -0.041,-0.068 -0.758,0.191 -0.725,0.202 m -0.182,0.38 0.84,-0.005 c 0,0.002 0.053,-0.118 0.035,-0.208 -0.015,-0.09 -0.898,0.184 -0.875,0.213 m -1.131,1.043 0.707,-0.004 c 0,0 0.25,-0.093 0.385,-0.158 0.133,-0.066 -1.06,0.141 -1.092,0.162 m -1.496,-5.828 0.719,0 c 0,0 -0.123,-0.061 -0.277,-0.111 -0.155,-0.052 -0.453,0.119 -0.442,0.111 m 0.184,-0.188 -0.563,0 c 0,0 0.102,-0.074 0.231,-0.084 0.131,-0.009 0.342,0.092 0.332,0.084 m -2.107,3.014 c 0.22,-0.057 0.459,-0.109 0.691,-0.143 -0.018,0.002 -0.539,-0.1 -0.584,-0.043 -0.043,0.057 -0.117,0.175 -0.107,0.186 m 0.22,-0.362 c 0.221,-0.053 0.463,-0.095 0.694,-0.132 0,0 -0.508,-0.107 -0.573,-0.041 -0.064,0.06 -0.127,0.174 -0.121,0.173 m 0.268,-0.388 c 0.221,-0.056 0.457,-0.092 0.687,-0.125 0,0 -0.533,-0.096 -0.58,-0.035 -0.047,0.059 -0.113,0.141 -0.107,0.16 m 0.322,-0.461 c 0.205,-0.051 0.443,-0.084 0.656,-0.115 0,0 -0.511,-0.084 -0.554,-0.029 -0.045,0.054 -0.11,0.14 -0.102,0.144 m 0.295,-0.456 C -0.199,-5.256 0,-5.289 0.188,-5.317 c 0,0 -0.45,-0.079 -0.485,-0.029 -0.033,0.05 -0.084,0.123 -0.078,0.134 m 0.225,-0.462 c 0.146,-0.037 0.302,-0.065 0.455,-0.087 0,0 -0.371,-0.061 -0.403,-0.022 -0.029,0.039 -0.052,0.109 -0.052,0.109 m -1.553,2.547 c 0.221,-0.074 0.467,-0.134 0.697,-0.179 0,0 -0.529,-0.124 -0.592,-0.045 -0.058,0.079 -0.129,0.235 -0.105,0.224 m -0.209,0.418 c 0.103,-0.033 0.221,-0.07 0.34,-0.102 l -0.065,0.034 0.205,0.216 0.215,-0.086 0.115,-0.28 0.084,0.267 0.264,0.069 0.209,-0.388 -0.07,-0.365 -0.735,0.409 c -0.17,-0.034 -0.421,-0.073 -0.451,-0.025 -0.047,0.075 -0.125,0.251 -0.111,0.251 m 0.715,1.984 c 0.068,-0.005 0.599,-0.07 0.758,-0.107 0,0 -0.905,-0.082 -1.098,-0.096 -0.195,-0.012 0.269,0.185 0.34,0.203 m 0.709,0.2 c 0.254,-0.038 0.427,-0.06 0.574,-0.085 0,0 -0.752,-0.035 -1.02,-0.052 -0.269,-0.018 0.407,0.123 0.446,0.137 m -2.416,-1.547 -0.043,0.429 0.031,0.333 0.172,-0.401 -0.063,-0.268 0.192,0.147 0.113,-0.061 0.045,-0.332 0.123,0.259 0.398,0.08 0.086,-0.215 -0.25,-0.196 0.411,-0.012 0.105,-0.101 -0.084,-0.35 -0.58,0.346 c 0.023,-0.065 0.049,-0.131 0.08,-0.197 0.586,-1.295 1.469,-2.123 1.789,-2.819 0.32,-0.695 0.289,-0.923 0.252,-1.174 -0.059,-0.382 1.582,-0.213 2.959,1.368 l -0.08,0.054 0.156,0.129 0.225,-0.127 0.133,-0.238 -0.11,-0.029 c 0,0 -0.041,0.025 -0.103,0.064 -1.063,-1.228 -2.168,-1.671 -2.77,-1.693 -0.387,-0.015 -0.619,0.072 -0.605,0.292 0.015,0.22 0.121,0.345 -0.223,1.095 -0.346,0.749 -1.275,1.662 -1.904,3.056 -0.065,0.141 -0.112,0.274 -0.147,0.4 l -0.308,0.161 z M 3.83,-4.913 3.723,-5.129 c -0.01,0.062 -0.016,0.132 -0.006,0.144 0.01,0.011 0.062,0.042 0.113,0.072 M 3.676,-5.182 3.311,-5.397 3.34,-5.209 3.549,-5.065 3.676,-5.182 z M 2.682,-5.173 1.686,-4.621 1.803,-4.494 2.02,-4.58 2.137,-4.861 2.219,-4.593 2.492,-4.469 2.76,-4.85 2.682,-5.173 z m -1.032,0.571 -1.671,0.929 0.044,0.289 0.198,0.136 0.027,-0.008 0.137,-0.124 0.109,-0.265 -0.082,-0.229 0.209,0.108 0.111,-0.058 0.071,-0.256 0.088,0.166 0.41,0.095 0.105,-0.247 -0.32,-0.156 0.418,-0.012 0.148,-0.11 -0.002,-0.258 z m -1.707,0.957 -0.513,0.283 0.164,0.134 0.224,-0.127 0.125,-0.29 z m -0.562,1.102 c 0.096,0.017 0.287,0.078 0.414,0.08 0.131,-0.05 0.221,-0.116 0.221,-0.116 l -0.278,-0.165 0.354,-0.004 0.119,-0.277 c 0,0 -0.199,-0.141 -0.272,-0.149 -0.072,-0.008 -0.103,0.005 -0.103,0.005 l -0.018,0.282 -0.152,-0.224 -0.285,0.568 z m -1.149,0.688 c 0,0 0.065,-0.204 0.082,-0.238 0.081,0.014 0.209,0.066 0.209,0.066 l -0.091,-0.171 c 0,0 0.111,-0.134 0.187,-0.157 0.059,0.068 0.178,0.187 0.178,0.187 l 0.006,-0.275 0.365,0.065 -0.176,0.318 c -0.068,0.052 -0.119,0.083 -0.195,0.123 l -0.139,-0.118 -0.013,0.182 -0.413,0.018 z m -1.039,0.576 0.438,0.128 c 0,0 0.039,-0.328 0.047,-0.308 0.009,0.02 0.131,0.252 0.131,0.252 -0.004,-0.023 0.062,-0.082 0.134,-0.183 0.045,-0.202 0.071,-0.34 0.071,-0.34 0,0 -0.205,-0.027 -0.358,-0.024 -0.152,0.006 -0.234,0.147 -0.234,0.147 l 0.076,0.287 -0.187,-0.166 -0.118,0.207 z M 2.695,-4.368 2.992,-4.33 C 3.125,-4.381 3.246,-4.439 3.246,-4.439 L 3.236,-4.625 3.41,-4.465 3.512,-4.883 3.314,-5.05 3.152,-4.994 3.078,-4.611 2.982,-4.936 2.695,-4.368 z m -1.226,0.58 c 0,0 0.09,-0.21 0.107,-0.246 l 0.162,0.21 -0.06,-0.348 0.176,-0.117 c 0.003,-0.006 0.123,0.23 0.123,0.23 l 0.06,-0.318 c 0,0 0.395,0.037 0.385,0.08 -0.053,0.226 -0.102,0.366 -0.139,0.459 l -0.189,0.074 -0.139,-0.15 -0.06,0.266 -0.426,-0.14 z m -1.039,0.576 0.435,0.128 c 0,0 0.086,-0.345 0.094,-0.325 0.01,0.018 0.086,0.267 0.086,0.267 L 1.184,-3.244 C 1.229,-3.447 1.25,-3.66 1.25,-3.66 c 0,0 -0.217,-0.108 -0.32,-0.075 -0.106,0.032 -0.272,0.194 -0.272,0.194 L 0.771,-3.326 0.547,-3.42 0.43,-3.212 z M 2.533,1.205 C 2.4,1.24 2.525,1.57 2.678,1.764 2.947,2.108 3.662,2.553 3.645,2.666 3.641,2.699 3.707,2.213 3.664,1.887 3.619,1.563 3.445,1.236 3.229,1.073 3.012,0.908 2.932,0.896 2.748,0.855 2.564,0.817 2.633,0.954 2.822,1.1 3.012,1.246 3.227,1.567 3.238,1.861 3.057,1.543 2.871,1.203 2.533,1.205 M 1.947,0.736 C 2.152,0.812 2.129,0.979 2.318,0.979 2.508,0.976 2.504,0.974 2.631,1.051 2.756,1.129 2.387,0.904 2.4,0.801 2.414,0.699 2.377,0.701 2.316,0.695 L 1.947,0.736 z M -0.957,3.012 C -1.059,2.671 -1.328,2.054 -1.299,1.67 c 0.037,-0.502 0.26,-0.886 0.744,-0.938 0.131,-0.015 0.26,-0.007 0.26,-0.007 -0.049,0.053 -0.283,0.08 -0.332,0.206 -0.051,0.126 0.022,0.255 -0.107,0.464 0.306,-0.162 0.16,-0.366 0.341,-0.421 C -0.209,0.918 -0.191,0.89 -0.152,0.847 -0.072,1.039 -0.41,1.129 -0.313,1.359 -0.297,1.15 0.045,1.064 0.057,0.902 0.063,0.826 0.092,0.775 0.129,0.746 0.148,0.747 0.166,0.75 0.188,0.75 0.234,0.754 0.281,0.756 0.328,0.759 0.328,0.775 0.32,0.79 0.313,0.794 0.293,0.805 0.09,0.946 0.156,1.197 0.223,1.449 0.365,1.484 0.416,1.789 0.602,1.533 0.219,1.093 0.375,1.037 0.465,1.005 0.627,1.219 0.549,1.48 0.693,1.342 0.721,1.174 0.652,1.045 0.584,0.917 0.549,0.846 0.594,0.771 0.633,0.771 0.67,0.772 0.709,0.773 0.732,0.797 0.748,0.832 0.762,0.87 0.789,0.979 0.738,1.014 0.807,1.121 0.9,1.264 1.111,1.199 1.004,1.541 1.045,1.518 1.344,1.408 1.09,1.111 0.834,0.815 1.217,0.695 1.242,0.903 1.266,1.11 1.295,1.352 1.453,1.438 1.609,1.523 1.336,1.244 1.477,1.164 1.621,1.084 1.43,1.023 1.402,0.857 1.373,0.69 1.65,0.828 1.668,1.041 1.688,1.256 1.807,1.281 1.895,1.317 1.982,1.352 2.008,1.531 2.008,1.531 2.051,1.469 2.082,1.338 2.049,1.254 2.004,1.152 1.707,0.95 1.781,0.862 1.82,0.817 1.895,0.85 1.986,1.016 2.094,1.213 2.422,0.904 2.375,1.415 2.326,1.948 2.836,2.156 2.793,3.111 2.537,2.988 2.17,2.633 2.002,2.383 1.73,1.975 1.691,1.883 1.645,1.796 1.49,1.949 1.611,2.218 1.664,2.425 1.713,2.631 1.83,3.021 1.725,3.283 1.521,2.939 1.242,2.584 1.111,2.367 0.982,2.152 0.914,1.949 0.891,1.887 0.584,2.039 1.035,2.592 0.916,3.09 0.676,2.697 0.518,2.506 0.352,2.311 0.277,2.226 0.314,2.019 -0.008,1.666 -0.104,1.828 0.182,2.271 0.186,2.588 0.189,2.944 0.07,3.234 0.07,3.234 0.068,3.238 -0.068,3.021 -0.213,2.822 -0.541,2.373 -0.516,2.139 -0.498,1.979 -0.453,1.543 -0.863,1.711 -0.641,2.326 -0.67,2.576 -0.811,2.823 -0.957,3.012" />
      </g>
      <g
         transform="translate(453.6357,252.6016)"
         id="g426">
        <path
           id="path428"
           style="fill:#096da9;fill-opacity:1;fill-rule:nonzero;stroke:none"
           d="m 0,0 c 0.008,-0.369 0.174,-0.621 0.389,-0.791 0.109,-0.088 0.22,-0.129 0.353,-0.181 l 0.483,2.06 C 1.561,1.122 1.92,1.096 2.307,1.021 3.01,0.887 3.637,0.646 4.275,0.344 5.23,-0.191 7.465,-1.307 7.852,-0.4 7.992,0.151 8.227,0.776 8.436,1.36 8.674,1.912 7.932,2.445 7.436,2.746 7.77,2.633 8.191,2.478 8.555,2.35 12.572,0.945 15.064,1.027 19.07,2.426 c 0.364,0.127 0.785,0.283 1.119,0.396 -0.498,-0.301 -1.238,-0.847 -1.003,-1.401 0.228,-0.568 0.48,-1.204 0.636,-1.795 0.418,-0.911 2.899,0.432 3.543,0.794 0.641,0.303 1.25,0.543 1.953,0.678 0.387,0.074 0.746,0.101 1.082,0.066 l 0.483,-2.059 c 0.131,0.051 0.246,0.094 0.353,0.18 0.213,0.171 0.381,0.423 0.387,0.791 0.02,0.893 0.061,1.787 0.09,2.681 0.008,0.081 -0.002,0.17 -0.033,0.268 C 27.666,3.07 27.648,3.113 27.625,3.153 27.441,3.48 26.984,3.664 26.385,3.709 25.805,3.752 25.084,3.668 24.359,3.462 23.725,3.281 23.141,3.009 22.568,2.695 c 0.141,0.622 0.319,1.219 0.565,1.809 0.086,0.252 0.041,0.531 -0.197,0.723 C 22.553,5.558 21.908,5.576 21.428,5.533 20.889,5.484 20.305,5.342 19.74,5.152 13.564,3.074 14.092,2.988 7.883,5.076 7.318,5.266 6.734,5.408 6.197,5.458 5.717,5.501 5.072,5.48 4.689,5.15 4.449,4.959 4.404,4.68 4.492,4.426 4.738,3.837 4.916,3.241 5.055,2.619 4.482,2.936 3.885,3.223 3.25,3.4 2.521,3.607 1.852,3.707 1.271,3.664 0.674,3.619 0.182,3.405 -0.002,3.078 -0.023,3.037 -0.043,2.994 -0.057,2.948 -0.086,2.85 -0.096,2.762 -0.09,2.681 -0.059,1.787 -0.018,0.893 0,0 M 8.609,2.494 C 8.016,2.703 7.414,2.912 6.822,3.102 6.324,3.26 5.848,3.337 5.414,3.061 5.328,3.006 5.275,2.969 5.18,2.855 5.123,3.014 5.383,3.392 5.51,3.494 5.342,3.475 5.143,3.299 5.066,3.171 5.041,3.42 5.268,3.65 5.367,3.836 5.225,3.788 5.057,3.688 4.955,3.532 4.891,3.648 5.078,3.964 5.219,4.168 5.041,4.088 4.945,4.006 4.857,3.868 4.805,4.078 5.041,4.411 5.107,4.533 4.969,4.506 4.783,4.313 4.738,4.219 4.688,4.438 4.816,4.662 4.996,4.868 4.871,4.826 4.686,4.715 4.643,4.545 4.588,4.744 4.631,4.893 4.797,5.035 5.145,5.336 5.752,5.342 6.184,5.305 6.707,5.257 7.277,5.115 7.83,4.93 c 6.483,-2.141 5.504,-2.062 11.963,0.076 0.553,0.185 1.125,0.326 1.648,0.374 0.432,0.039 1.039,0.03 1.385,-0.269 0.168,-0.142 0.211,-0.291 0.154,-0.49 -0.041,0.17 -0.226,0.281 -0.353,0.322 0.182,-0.205 0.311,-0.429 0.258,-0.649 -0.045,0.096 -0.229,0.288 -0.369,0.314 0.066,-0.12 0.304,-0.454 0.25,-0.665 -0.086,0.139 -0.18,0.221 -0.36,0.3 C 22.545,4.041 22.734,3.727 22.668,3.607 22.566,3.764 22.4,3.865 22.256,3.912 22.355,3.727 22.586,3.496 22.559,3.248 22.482,3.376 22.283,3.551 22.117,3.57 22.24,3.467 22.5,3.09 22.447,2.932 22.348,3.045 22.295,3.082 22.211,3.137 21.777,3.413 21.301,3.335 20.803,3.179 20.211,2.986 19.609,2.779 19.014,2.572 15.195,1.214 12.822,1.152 8.609,2.494" />
      </g>
      <g
         transform="translate(481.1787,255.3008)"
         id="g430">
        <path
           id="path432"
           style="fill:#ffffff;fill-opacity:1;fill-rule:nonzero;stroke:none"
           d="m 0,0 c -0.125,-0.498 -1.033,-0.452 -1.414,-0.395 l 0.223,-0.976 c -0.338,0.029 -0.686,-0.006 -1.065,-0.078 -0.803,-0.154 -1.603,-0.471 -2.002,-0.697 -0.66,-0.327 -2.806,-1.555 -3.328,-0.839 -0.131,0.5 -0.461,1.383 -0.66,1.862 0.795,-0.609 3.996,1.424 5.107,1.736 0.709,0.201 1.407,0.283 1.969,0.241 C -0.721,0.82 0.154,0.611 0,0 M -0.076,-0.354 C -0.32,-0.547 -0.6,-0.627 -1.191,-0.584 l 0.642,-2.786 c 0.319,0.143 0.477,0.421 0.469,0.869 -0.059,-0.11 -0.143,-0.177 -0.221,-0.249 0.09,0.236 0.201,0.469 0.221,0.686 -0.055,-0.063 -0.176,-0.17 -0.264,-0.201 0.11,0.187 0.203,0.421 0.266,0.605 -0.106,-0.054 -0.209,-0.156 -0.317,-0.211 0.141,0.256 0.26,0.438 0.323,0.622 -0.127,-0.078 -0.258,-0.203 -0.369,-0.229 0.109,0.143 0.326,0.527 0.371,0.648 -0.119,-0.07 -0.268,-0.162 -0.414,-0.203 0.16,0.187 0.328,0.444 0.408,0.679" />
      </g>
      <g
         transform="translate(464.2275,256.0566)"
         id="g434">
        <path
           id="path436"
           style="fill:#096da9;fill-opacity:1;fill-rule:nonzero;stroke:none"
           d="M 0,0 0.068,0.091 0.123,0.073 0.129,-0.364 0.063,-0.341 c -0.036,0.135 -0.086,0.246 -0.151,0.329 -0.064,0.082 -0.135,0.137 -0.213,0.162 -0.066,0.022 -0.121,0.02 -0.164,-0.007 -0.039,-0.028 -0.06,-0.071 -0.06,-0.128 0,-0.034 0.007,-0.068 0.023,-0.103 0.018,-0.032 0.043,-0.066 0.08,-0.098 0.037,-0.031 0.102,-0.074 0.193,-0.127 0.108,-0.058 0.182,-0.105 0.223,-0.14 0.065,-0.054 0.113,-0.113 0.147,-0.178 0.033,-0.064 0.048,-0.136 0.048,-0.213 0,-0.117 -0.035,-0.199 -0.105,-0.244 -0.086,-0.057 -0.189,-0.062 -0.316,-0.021 -0.116,0.037 -0.219,0.117 -0.317,0.24 l -0.086,-0.096 -0.054,0.018 0,0.467 0.062,-0.023 c 0.068,-0.286 0.201,-0.464 0.4,-0.528 0.082,-0.028 0.145,-0.028 0.192,0 0.045,0.029 0.068,0.076 0.068,0.138 0,0.045 -0.012,0.086 -0.031,0.123 -0.02,0.038 -0.051,0.073 -0.092,0.104 -0.023,0.018 -0.08,0.053 -0.172,0.105 -0.123,0.071 -0.209,0.131 -0.259,0.18 -0.055,0.05 -0.092,0.104 -0.118,0.157 -0.023,0.056 -0.037,0.119 -0.037,0.185 0,0.116 0.033,0.198 0.102,0.248 0.07,0.051 0.158,0.055 0.273,0.019 C -0.191,0.191 -0.092,0.117 0,0" />
      </g>
      <g
         transform="translate(462.3232,256.792)"
         id="g438">
        <path
           id="path440"
           style="fill:#096da9;fill-opacity:1;fill-rule:nonzero;stroke:none"
           d="m 0,0 0.549,-0.206 0,-0.082 -0.113,0.043 C 0.42,-0.239 0.408,-0.241 0.4,-0.251 0.391,-0.26 0.387,-0.278 0.387,-0.304 l 0,-0.72 c 0,-0.102 0.021,-0.19 0.066,-0.26 0.049,-0.071 0.111,-0.121 0.19,-0.153 0.056,-0.021 0.111,-0.027 0.158,-0.013 0.035,0.008 0.064,0.034 0.086,0.077 0.023,0.044 0.035,0.102 0.035,0.181 l 0,0.552 c 0,0.073 -0.014,0.129 -0.039,0.174 -0.028,0.045 -0.063,0.076 -0.108,0.093 l -0.015,0.007 0,0.08 0.416,-0.154 0,-0.083 -0.03,0.01 C 1.104,-0.495 1.07,-0.503 1.047,-0.534 1.025,-0.565 1.014,-0.608 1.014,-0.667 l 0,-0.598 C 1.014,-1.399 0.977,-1.493 0.902,-1.546 0.826,-1.599 0.723,-1.603 0.592,-1.553 0.498,-1.517 0.416,-1.469 0.348,-1.404 0.275,-1.342 0.227,-1.276 0.199,-1.206 0.17,-1.138 0.154,-1.057 0.154,-0.962 l 0,0.732 c 0,0.036 -0.006,0.06 -0.015,0.077 -0.012,0.018 -0.032,0.03 -0.059,0.04 L 0,-0.082 0,0 z" />
      </g>
      <g
         transform="translate(461.3721,257.0605)"
         id="g442">
        <path
           id="path444"
           style="fill:#096da9;fill-opacity:1;fill-rule:nonzero;stroke:none"
           d="m 0,0 0,0.084 0.553,-0.199 0,-0.084 -0.092,0.034 c -0.027,0.01 -0.047,0.01 -0.057,0 C 0.395,-0.174 0.389,-0.191 0.389,-0.22 l 0,-0.99 c 0,-0.039 0.006,-0.065 0.015,-0.081 0.01,-0.015 0.034,-0.029 0.073,-0.044 L 0.631,-1.39 c 0.058,-0.02 0.111,-0.005 0.162,0.044 0.051,0.05 0.09,0.143 0.115,0.284 L 0.975,-1.086 0.949,-1.588 0,-1.247 0,-1.163 0.096,-1.197 c 0.021,-0.008 0.035,-0.008 0.047,0.004 0.011,0.008 0.015,0.025 0.015,0.048 l 0,1.018 c 0,0.023 -0.004,0.043 -0.015,0.059 -0.012,0.015 -0.032,0.027 -0.057,0.037 L 0,0 z" />
      </g>
      <g
         transform="translate(460.7373,257.334)"
         id="g446">
        <path
           id="path448"
           style="fill:#096da9;fill-opacity:1;fill-rule:nonzero;stroke:none"
           d="M 0,0 0.406,-1.305 C 0.418,-1.341 0.43,-1.365 0.443,-1.383 0.457,-1.4 0.475,-1.412 0.498,-1.42 l 0.039,-0.014 0,-0.082 -0.506,0.178 0,0.081 0.047,-0.016 c 0.037,-0.014 0.065,-0.017 0.076,-0.013 0.016,0.005 0.024,0.015 0.024,0.034 0,0.012 -0.004,0.027 -0.01,0.047 l -0.082,0.269 -0.404,0.141 -0.039,-0.096 c -0.016,-0.041 -0.024,-0.07 -0.024,-0.093 0,-0.037 0.012,-0.074 0.033,-0.104 0.024,-0.033 0.055,-0.056 0.098,-0.07 l 0.033,-0.012 0,-0.082 -0.408,0.145 0,0.08 0.021,-0.007 c 0.028,-0.009 0.051,-0.007 0.071,0.005 0.029,0.017 0.049,0.047 0.066,0.085 L -0.082,0.029 0,0 z m -0.117,-0.285 -0.172,-0.434 0.344,-0.12 -0.172,0.554 z" />
      </g>
      <g
         transform="translate(459.9346,257.3711)"
         id="g450">
        <path
           id="path452"
           style="fill:#096da9;fill-opacity:1;fill-rule:nonzero;stroke:none"
           d="M 0,0 0.072,0.102 0.127,0.099 0.131,-0.326 0.063,-0.322 c -0.036,0.125 -0.088,0.22 -0.155,0.287 -0.064,0.065 -0.138,0.101 -0.217,0.108 -0.07,0.005 -0.125,-0.01 -0.17,-0.048 -0.044,-0.035 -0.066,-0.083 -0.066,-0.138 0,-0.033 0.008,-0.065 0.025,-0.094 0.016,-0.028 0.043,-0.055 0.082,-0.076 0.038,-0.024 0.104,-0.049 0.198,-0.078 0.113,-0.034 0.187,-0.062 0.23,-0.085 C 0.059,-0.484 0.109,-0.53 0.143,-0.586 0.174,-0.641 0.191,-0.707 0.191,-0.783 0.188,-0.896 0.152,-0.984 0.078,-1.046 -0.01,-1.121 -0.119,-1.152 -0.25,-1.143 c -0.119,0.009 -0.227,0.063 -0.324,0.161 l -0.092,-0.116 -0.057,0.004 0.004,0.457 0.067,-0.006 c 0.066,-0.265 0.203,-0.406 0.41,-0.421 0.084,-0.007 0.15,0.007 0.197,0.046 0.047,0.038 0.072,0.088 0.072,0.151 0,0.043 -0.009,0.082 -0.031,0.113 -0.019,0.031 -0.051,0.058 -0.094,0.079 -0.025,0.013 -0.084,0.032 -0.177,0.06 -0.125,0.041 -0.217,0.08 -0.27,0.115 -0.053,0.037 -0.094,0.079 -0.117,0.128 -0.026,0.048 -0.039,0.105 -0.037,0.171 0,0.112 0.037,0.201 0.107,0.265 0.071,0.066 0.164,0.093 0.283,0.084 C -0.195,0.141 -0.094,0.09 0,0" />
      </g>
      <g
         transform="translate(475.3135,257.6621)"
         id="g454">
        <path
           id="path456"
           style="fill:#096da9;fill-opacity:1;fill-rule:nonzero;stroke:none"
           d="m 0,0 c 0.107,-0.004 0.207,-0.037 0.297,-0.1 0.09,-0.061 0.16,-0.142 0.205,-0.24 0.051,-0.101 0.072,-0.213 0.07,-0.335 C 0.564,-0.86 0.506,-1.013 0.389,-1.131 0.273,-1.248 0.133,-1.303 -0.035,-1.295 c -0.11,0.006 -0.207,0.039 -0.293,0.1 -0.088,0.06 -0.152,0.14 -0.203,0.239 -0.045,0.098 -0.071,0.21 -0.065,0.338 0.004,0.186 0.065,0.34 0.178,0.457 C -0.303,-0.046 -0.162,0.01 0,0 m 0.004,-0.079 c -0.063,0.002 -0.115,-0.013 -0.162,-0.048 -0.047,-0.034 -0.084,-0.091 -0.113,-0.172 -0.03,-0.08 -0.047,-0.191 -0.051,-0.334 0,-0.148 0.006,-0.26 0.029,-0.339 0.022,-0.079 0.057,-0.137 0.102,-0.176 0.046,-0.04 0.101,-0.061 0.164,-0.063 0.093,-0.006 0.168,0.033 0.224,0.115 0.059,0.084 0.09,0.232 0.096,0.444 0.004,0.148 -0.004,0.26 -0.027,0.338 -0.02,0.076 -0.055,0.132 -0.102,0.17 -0.045,0.04 -0.098,0.06 -0.16,0.065" />
      </g>
      <g
         transform="translate(474.0889,257.3867)"
         id="g458">
        <path
           id="path460"
           style="fill:#096da9;fill-opacity:1;fill-rule:nonzero;stroke:none"
           d="M 0,0 0.561,0.156 0.559,0.076 0.455,0.043 C 0.434,0.037 0.418,0.025 0.408,0.013 0.398,0 0.393,-0.016 0.391,-0.036 L 0.363,-1.014 c 0,-0.023 0.004,-0.036 0.016,-0.043 0.012,-0.007 0.031,-0.007 0.057,10e-4 l 0.087,0.031 0,-0.079 -0.564,-0.187 0.004,0.078 0.086,0.028 c 0.031,0.009 0.051,0.023 0.062,0.039 0.014,0.015 0.02,0.033 0.02,0.054 l 0.031,1.001 c 0,0.023 -0.006,0.038 -0.016,0.046 -0.009,0.008 -0.029,0.008 -0.052,0 L -0.004,-0.078 0,0 z" />
      </g>
      <g
         transform="translate(472.999,257.0332)"
         id="g462">
        <path
           id="path464"
           style="fill:#096da9;fill-opacity:1;fill-rule:nonzero;stroke:none"
           d="M 0,0 0.953,0.323 0.965,-0.17 0.898,-0.193 C 0.883,-0.093 0.863,-0.017 0.838,0.036 0.813,0.084 0.785,0.118 0.754,0.131 0.723,0.145 0.688,0.145 0.65,0.133 0.627,0.125 0.611,0.113 0.602,0.099 0.592,0.084 0.586,0.066 0.586,0.047 l 0,-1.014 c 0,-0.019 0.006,-0.033 0.016,-0.042 0.009,-0.01 0.019,-0.012 0.035,-0.007 l 0.123,0.043 0,-0.082 -0.576,-0.201 0,0.08 0.115,0.042 c 0.017,0.006 0.031,0.017 0.043,0.032 0.01,0.016 0.015,0.034 0.015,0.053 l 0,1.02 c 0,0.023 -0.005,0.04 -0.015,0.047 -0.012,0.007 -0.028,0.007 -0.051,0 -0.123,-0.043 -0.207,-0.21 -0.25,-0.501 L -0.025,-0.506 0,0 z" />
      </g>
      <g
         transform="translate(472.4795,256.8691)"
         id="g466">
        <path
           id="path468"
           style="fill:#096da9;fill-opacity:1;fill-rule:nonzero;stroke:none"
           d="m 0,0 0.402,-1.036 c 0.01,-0.028 0.022,-0.047 0.036,-0.053 0.015,-0.008 0.033,-0.008 0.054,10e-4 l 0.039,0.016 0,-0.085 -0.502,-0.184 0,0.082 0.047,0.019 c 0.037,0.013 0.063,0.029 0.078,0.044 0.012,0.014 0.02,0.03 0.02,0.048 0,0.013 -0.004,0.027 -0.01,0.042 l -0.082,0.214 -0.4,-0.147 -0.039,-0.126 c -0.016,-0.052 -0.024,-0.089 -0.024,-0.112 0,-0.038 0.012,-0.065 0.035,-0.08 0.024,-0.016 0.053,-0.016 0.094,-0.002 l 0.035,0.011 0,-0.082 -0.406,-0.148 0,0.082 0.021,0.01 c 0.026,0.007 0.049,0.027 0.071,0.054 0.027,0.039 0.049,0.084 0.064,0.133 L -0.082,-0.028 0,0 z m -0.117,-0.375 -0.17,-0.564 0.34,0.123 -0.17,0.441 z" />
      </g>
      <g
         transform="translate(470.8584,256.2109)"
         id="g470">
        <path
           id="path472"
           style="fill:#096da9;fill-opacity:1;fill-rule:nonzero;stroke:none"
           d="M 0,0 0,0.084 0.563,0.27 0.563,0.186 0.467,0.154 C 0.439,0.146 0.422,0.133 0.41,0.117 0.4,0.1 0.395,0.078 0.395,0.049 l 0,-0.997 c 0,-0.042 0.005,-0.066 0.015,-0.073 0.01,-0.006 0.035,-0.006 0.072,0.007 l 0.159,0.052 c 0.058,0.021 0.113,0.073 0.164,0.157 0.05,0.086 0.088,0.208 0.117,0.367 L 0.986,-0.416 0.963,-0.939 0,-1.257 l 0,0.083 0.1,0.033 c 0.019,0.006 0.035,0.019 0.045,0.036 0.011,0.017 0.017,0.037 0.017,0.061 l 0,1.026 c 0,0.026 -0.006,0.041 -0.017,0.047 -0.01,0.009 -0.03,0.008 -0.057,0 L 0,0 z" />
      </g>
      <g
         transform="translate(469.3721,255.7441)"
         id="g474">
        <path
           id="path476"
           style="fill:#096da9;fill-opacity:1;fill-rule:nonzero;stroke:none"
           d="m 0,0 0.072,0.123 0.055,0.009 0.006,-0.425 -0.069,-0.01 c -0.035,0.115 -0.085,0.199 -0.152,0.25 -0.064,0.051 -0.137,0.069 -0.217,0.053 -0.068,-0.009 -0.123,-0.039 -0.166,-0.086 -0.043,-0.048 -0.062,-0.099 -0.062,-0.154 0,-0.033 0.006,-0.063 0.023,-0.088 0.016,-0.026 0.045,-0.043 0.082,-0.057 0.037,-0.012 0.102,-0.023 0.198,-0.03 0.109,-0.007 0.183,-0.017 0.226,-0.03 0.067,-0.022 0.115,-0.055 0.15,-0.104 0.032,-0.047 0.049,-0.109 0.049,-0.185 0,-0.114 -0.035,-0.21 -0.107,-0.289 C 0,-1.119 -0.107,-1.176 -0.234,-1.197 c -0.12,-0.02 -0.227,0.008 -0.323,0.081 l -0.089,-0.136 -0.057,-0.009 0,0.455 0.068,0.011 c 0.065,-0.249 0.201,-0.357 0.406,-0.322 0.083,0.013 0.149,0.045 0.194,0.094 0.047,0.048 0.07,0.104 0.07,0.167 0,0.043 -0.01,0.079 -0.031,0.105 -0.02,0.026 -0.051,0.046 -0.094,0.057 -0.023,0.005 -0.082,0.012 -0.176,0.019 -0.123,0.01 -0.213,0.025 -0.267,0.048 -0.051,0.023 -0.09,0.057 -0.115,0.098 -0.028,0.043 -0.038,0.097 -0.038,0.166 0,0.111 0.034,0.207 0.102,0.288 0.07,0.082 0.162,0.133 0.279,0.151 C -0.193,0.097 -0.09,0.069 0,0" />
      </g>
      <g
         transform="translate(467.374,255.6348)"
         id="g478">
        <path
           id="path480"
           style="fill:#096da9;fill-opacity:1;fill-rule:nonzero;stroke:none"
           d="m 0,0 0.355,0.023 0.622,-0.804 0,0.573 c 0,0.058 -0.016,0.101 -0.045,0.133 -0.032,0.031 -0.073,0.05 -0.129,0.05 l 0,0.076 0.418,0.026 0,-0.076 C 1.164,-0.008 1.121,-0.031 1.096,-0.064 1.07,-0.096 1.059,-0.142 1.059,-0.203 l 0,-0.959 -0.088,-0.006 -0.707,0.926 0,-0.672 c 0,-0.078 0.015,-0.133 0.049,-0.164 0.033,-0.035 0.074,-0.051 0.121,-0.047 l 0.019,0.002 0,-0.078 -0.461,-0.029 0,0.078 0.031,10e-4 c 0.045,0.003 0.084,0.025 0.116,0.065 0.031,0.041 0.045,0.092 0.045,0.153 l 0,0.796 C 0.15,-0.092 0.105,-0.07 0.053,-0.074 L 0,-0.076 0,0 z" />
      </g>
      <g
         transform="translate(466.7061,255.7188)"
         id="g482">
        <path
           id="path484"
           style="fill:#096da9;fill-opacity:1;fill-rule:nonzero;stroke:none"
           d="m 0,0 c 0.109,-0.008 0.207,-0.044 0.299,-0.107 0.092,-0.062 0.162,-0.144 0.215,-0.245 0.049,-0.1 0.074,-0.212 0.074,-0.334 0,-0.182 -0.055,-0.333 -0.168,-0.447 -0.113,-0.115 -0.25,-0.166 -0.416,-0.154 -0.111,0.008 -0.211,0.045 -0.297,0.107 -0.088,0.063 -0.156,0.142 -0.209,0.242 -0.049,0.098 -0.074,0.209 -0.074,0.336 0,0.188 0.055,0.338 0.166,0.452 C -0.299,-0.037 -0.162,0.012 0,0 m 0.006,-0.08 c -0.063,0.006 -0.113,-0.01 -0.158,-0.043 -0.047,-0.033 -0.082,-0.089 -0.11,-0.168 -0.025,-0.079 -0.039,-0.188 -0.039,-0.33 0,-0.149 0.012,-0.262 0.037,-0.339 0.024,-0.078 0.059,-0.136 0.106,-0.177 0.047,-0.04 0.101,-0.062 0.164,-0.066 0.092,-0.008 0.166,0.029 0.223,0.111 0.054,0.079 0.082,0.227 0.082,0.436 0,0.148 -0.012,0.26 -0.036,0.336 -0.023,0.076 -0.06,0.133 -0.105,0.172 -0.047,0.04 -0.102,0.062 -0.164,0.068" />
      </g>
      <g
         transform="translate(465.8486,255.6924)"
         id="g486">
        <path
           id="path488"
           style="fill:#096da9;fill-opacity:1;fill-rule:nonzero;stroke:none"
           d="m 0,0 0.053,0.112 0.058,-0.009 0.018,-0.499 -0.07,0.014 c -0.022,0.147 -0.063,0.26 -0.123,0.34 -0.061,0.079 -0.129,0.127 -0.207,0.142 -0.086,0.015 -0.157,-0.015 -0.213,-0.093 -0.057,-0.078 -0.084,-0.213 -0.084,-0.404 0,-0.204 0.031,-0.359 0.093,-0.467 0.049,-0.087 0.121,-0.139 0.217,-0.157 0.098,-0.019 0.178,0.002 0.242,0.069 0.049,0.047 0.08,0.123 0.1,0.229 L 0.152,-0.736 C 0.137,-0.874 0.088,-0.976 0.006,-1.04 c -0.084,-0.066 -0.182,-0.088 -0.303,-0.066 -0.154,0.028 -0.285,0.113 -0.389,0.252 -0.105,0.138 -0.156,0.3 -0.156,0.486 0,0.207 0.061,0.359 0.18,0.461 0.103,0.084 0.223,0.114 0.361,0.089 C -0.246,0.171 -0.193,0.15 -0.148,0.124 -0.102,0.097 -0.053,0.056 0,0" />
      </g>
      <g
         transform="translate(453.7393,255.2344)"
         id="g490">
        <path
           id="path492"
           style="fill:#ffffff;fill-opacity:1;fill-rule:nonzero;stroke:none"
           d="M 0,0 C 0.125,-0.5 1.033,-0.454 1.414,-0.396 L 1.189,-1.373 c 0.342,0.03 0.686,-0.006 1.065,-0.076 0.803,-0.155 1.605,-0.473 2.004,-0.697 0.66,-0.327 2.808,-1.557 3.328,-0.84 0.129,0.498 0.461,1.384 0.658,1.862 C 7.451,-1.732 4.25,0.299 3.137,0.614 2.43,0.813 1.73,0.896 1.17,0.854 0.719,0.818 -0.152,0.608 0,0 M 0.074,-0.355 C 0.32,-0.549 0.6,-0.629 1.189,-0.586 L 0.549,-3.373 C 0.229,-3.229 0.072,-2.95 0.08,-2.501 0.139,-2.613 0.221,-2.68 0.303,-2.751 0.209,-2.517 0.1,-2.283 0.08,-2.066 c 0.055,-0.061 0.176,-0.17 0.264,-0.2 -0.11,0.187 -0.203,0.422 -0.268,0.604 0.108,-0.053 0.213,-0.156 0.319,-0.209 -0.141,0.256 -0.26,0.437 -0.323,0.619 0.125,-0.076 0.256,-0.2 0.369,-0.227 -0.109,0.144 -0.326,0.526 -0.373,0.647 0.12,-0.069 0.268,-0.162 0.418,-0.204 -0.164,0.188 -0.33,0.447 -0.412,0.681" />
      </g>
      <g
         transform="translate(470.2256,256.168)"
         id="g494">
        <path
           id="path496"
           style="fill:#096da9;fill-opacity:1;fill-rule:nonzero;stroke:none"
           d="M 0,0 C 0.104,0.022 0.199,0.012 0.285,-0.032 0.373,-0.074 0.441,-0.144 0.49,-0.237 0.537,-0.331 0.563,-0.442 0.563,-0.574 0.563,-0.771 0.51,-0.949 0.402,-1.102 0.295,-1.256 0.16,-1.35 0,-1.381 c -0.105,-0.021 -0.201,-0.01 -0.285,0.031 -0.082,0.045 -0.147,0.113 -0.195,0.205 -0.051,0.092 -0.077,0.206 -0.077,0.341 0,0.202 0.055,0.378 0.162,0.53 C -0.289,-0.122 -0.158,-0.031 0,0 m 0.004,-0.084 c -0.059,-0.013 -0.111,-0.041 -0.152,-0.091 -0.045,-0.048 -0.079,-0.116 -0.104,-0.208 -0.027,-0.093 -0.039,-0.215 -0.039,-0.365 0,-0.16 0.012,-0.277 0.035,-0.356 0.024,-0.076 0.059,-0.13 0.104,-0.16 0.045,-0.03 0.097,-0.038 0.156,-0.029 0.09,0.02 0.16,0.08 0.213,0.182 0.053,0.101 0.08,0.266 0.08,0.493 0,0.159 -0.012,0.274 -0.035,0.35 -0.024,0.076 -0.057,0.127 -0.102,0.157 -0.045,0.029 -0.097,0.039 -0.156,0.027" />
      </g>
      <g
         transform="translate(456.7725,255.2871)"
         id="g498">
        <path
           id="path500"
           style="fill:#096da9;fill-opacity:1;fill-rule:nonzero;stroke:none"
           d="M 0,0 0.094,0.094 0.152,0.082 0.098,-0.355 0.023,-0.338 c -0.021,0.133 -0.062,0.24 -0.125,0.318 -0.064,0.08 -0.138,0.127 -0.226,0.147 -0.072,0.018 -0.137,0.01 -0.19,-0.02 -0.052,-0.03 -0.082,-0.074 -0.091,-0.13 -0.004,-0.036 0,-0.069 0.015,-0.1 0.014,-0.033 0.041,-0.064 0.078,-0.094 0.039,-0.029 0.106,-0.068 0.205,-0.111 0.118,-0.053 0.198,-0.096 0.241,-0.126 0.066,-0.049 0.115,-0.105 0.142,-0.167 C 0.102,-0.684 0.109,-0.752 0.1,-0.83 0.084,-0.947 0.029,-1.029 -0.059,-1.082 -0.166,-1.143 -0.287,-1.158 -0.43,-1.127 c -0.127,0.031 -0.238,0.102 -0.332,0.219 l -0.115,-0.102 -0.061,0.014 0.067,0.465 0.072,-0.016 c 0.035,-0.283 0.164,-0.449 0.389,-0.5 0.092,-0.021 0.166,-0.016 0.222,0.016 0.057,0.029 0.088,0.078 0.098,0.142 0.006,0.045 0,0.085 -0.017,0.119 -0.018,0.038 -0.049,0.069 -0.094,0.097 -0.022,0.017 -0.084,0.048 -0.182,0.093 -0.133,0.061 -0.226,0.115 -0.279,0.162 -0.053,0.045 -0.092,0.094 -0.111,0.147 -0.022,0.054 -0.026,0.115 -0.016,0.183 0.016,0.113 0.066,0.199 0.152,0.254 0.086,0.055 0.194,0.068 0.321,0.039 C -0.195,0.176 -0.09,0.108 0,0 M 0.5,-0.063 1.17,-0.339 C 1.285,-0.387 1.371,-0.455 1.43,-0.551 1.492,-0.646 1.514,-0.742 1.5,-0.84 1.488,-0.912 1.461,-0.969 1.412,-1.008 1.365,-1.047 1.305,-1.065 1.232,-1.063 1.162,-1.059 1.094,-1.045 1.027,-1.018 L 0.814,-0.931 0.758,-1.339 c -0.006,-0.023 0,-0.042 0.01,-0.061 0.009,-0.018 0.021,-0.03 0.041,-0.038 L 0.941,-1.49 0.93,-1.57 0.32,-1.318 0.33,-1.24 0.434,-1.281 c 0.021,-0.011 0.039,-0.011 0.052,-0.004 0.014,0.008 0.024,0.023 0.026,0.046 l 0.138,0.957 c 0.002,0.02 -0.002,0.04 -0.011,0.057 -0.01,0.018 -0.024,0.03 -0.041,0.037 l -0.11,0.045 0.012,0.08 z m 0.326,-0.789 0.143,-0.06 c 0.049,-0.02 0.094,-0.026 0.136,-0.02 0.041,0.008 0.075,0.026 0.094,0.053 0.022,0.025 0.037,0.075 0.049,0.15 0.014,0.102 -0.002,0.183 -0.045,0.246 C 1.17,-0.437 1.109,-0.396 1.021,-0.36 0.969,-0.34 0.936,-0.331 0.922,-0.336 0.906,-0.339 0.896,-0.351 0.896,-0.375 l -0.07,-0.477 z m 0.877,0.213 0.971,-0.463 -0.041,-0.45 -0.067,0.032 c 0,0.112 -0.011,0.196 -0.025,0.252 -0.02,0.058 -0.045,0.104 -0.078,0.146 -0.035,0.04 -0.082,0.075 -0.145,0.104 L 2.166,-0.943 C 2.143,-0.934 2.127,-0.932 2.113,-0.936 2.102,-0.941 2.094,-0.953 2.09,-0.973 L 2.029,-1.407 2.082,-1.433 c 0.059,-0.029 0.107,-0.031 0.147,-0.006 0.039,0.021 0.066,0.074 0.084,0.156 L 2.381,-1.316 2.297,-1.898 2.229,-1.867 c 0.009,0.099 10e-4,0.177 -0.028,0.232 -0.025,0.055 -0.074,0.1 -0.14,0.13 L 2.018,-1.484 1.951,-1.949 c -0.002,-0.02 0,-0.035 0.01,-0.05 0.014,-0.021 0.037,-0.038 0.066,-0.052 L 2.16,-2.113 c 0.092,-0.045 0.174,-0.047 0.24,-0.008 0.069,0.037 0.12,0.119 0.151,0.246 l 0.068,-0.031 -0.084,-0.47 -1.01,0.481 0.012,0.079 0.1,-0.047 c 0.023,-0.012 0.041,-0.013 0.052,-0.006 0.014,0.008 0.024,0.023 0.028,0.045 l 0.137,0.964 c 10e-4,0.022 0,0.04 -0.012,0.055 -0.008,0.014 -0.029,0.03 -0.061,0.045 l -0.088,0.041 0.01,0.08 z M 3.707,-1.588 3.799,-1.498 3.855,-1.516 3.801,-1.951 3.729,-1.93 C 3.707,-1.793 3.668,-1.684 3.605,-1.602 3.545,-1.518 3.473,-1.463 3.387,-1.438 3.316,-1.414 3.254,-1.418 3.203,-1.444 3.152,-1.472 3.121,-1.514 3.113,-1.57 3.109,-1.604 3.113,-1.64 3.127,-1.672 3.143,-1.705 3.166,-1.739 3.205,-1.771 3.24,-1.803 3.307,-1.846 3.404,-1.898 3.518,-1.959 3.596,-2.006 3.635,-2.04 3.701,-2.094 3.748,-2.154 3.775,-2.219 3.803,-2.283 3.811,-2.354 3.801,-2.433 3.783,-2.547 3.73,-2.629 3.646,-2.675 3.541,-2.729 3.422,-2.736 3.285,-2.695 3.16,-2.657 3.053,-2.576 2.963,-2.455 l -0.113,-0.096 -0.059,0.02 0.066,0.466 0.069,-0.021 c 0.035,-0.289 0.16,-0.465 0.377,-0.53 0.088,-0.027 0.16,-0.027 0.215,0 0.056,0.027 0.089,0.075 0.097,0.137 0.008,0.044 0,0.086 -0.015,0.123 -0.018,0.036 -0.049,0.071 -0.09,0.104 -0.024,0.018 -0.084,0.053 -0.18,0.106 -0.127,0.069 -0.217,0.13 -0.269,0.179 -0.053,0.051 -0.088,0.104 -0.108,0.157 -0.017,0.058 -0.023,0.119 -0.014,0.187 0.016,0.114 0.065,0.196 0.149,0.244 0.084,0.051 0.187,0.057 0.312,0.02 0.118,-0.037 0.221,-0.113 0.307,-0.229" />
      </g>
      <g
         transform="translate(479.0225,255.6797)"
         id="g502">
        <path
           id="path504"
           style="fill:#096da9;fill-opacity:1;fill-rule:nonzero;stroke:none"
           d="M 0,0 0.617,-1.119 C 0.633,-1.15 0.65,-1.171 0.668,-1.182 0.682,-1.191 0.701,-1.196 0.723,-1.191 L 0.762,-1.189 0.777,-1.27 0.275,-1.323 0.26,-1.242 0.307,-1.236 c 0.037,0.004 0.062,0.011 0.074,0.023 0.012,0.011 0.015,0.024 0.014,0.041 -0.002,0.012 -0.008,0.027 -0.016,0.043 l -0.129,0.232 -0.4,-0.041 -0.018,-0.115 c -0.006,-0.047 -0.008,-0.082 -0.006,-0.103 0.008,-0.04 0.024,-0.069 0.053,-0.088 0.027,-0.023 0.062,-0.031 0.101,-0.027 l 0.034,0.003 0.015,-0.082 -0.406,-0.043 -0.014,0.082 0.024,0.002 c 0.025,0.004 0.047,0.016 0.062,0.038 0.024,0.031 0.037,0.07 0.045,0.115 L -0.08,-0.008 0,0 z m -0.055,-0.34 -0.08,-0.512 0.34,0.039 -0.26,0.473 z" />
      </g>
      <g
         transform="translate(477.4502,255.2559)"
         id="g506">
        <path
           id="path508"
           style="fill:#096da9;fill-opacity:1;fill-rule:nonzero;stroke:none"
           d="M 0,0 0.51,0.194 C 0.594,0.225 0.666,0.232 0.727,0.222 0.785,0.212 0.832,0.188 0.867,0.149 0.902,0.109 0.926,0.061 0.936,0.002 0.955,-0.092 0.949,-0.195 0.895,-0.276 0.852,-0.336 0.779,-0.393 0.678,-0.44 c 0.054,0.007 0.099,0.002 0.131,-0.011 0.035,-0.015 0.064,-0.042 0.095,-0.081 0.039,-0.052 0.078,-0.118 0.112,-0.199 0.021,-0.052 0.039,-0.083 0.05,-0.097 0.01,-0.011 0.024,-0.014 0.034,-0.011 0.029,0.01 0.039,0.067 0.025,0.169 l 0.059,0.022 C 1.201,-0.758 1.195,-0.842 1.17,-0.898 1.146,-0.955 1.104,-0.994 1.043,-1.016 c -0.041,-0.013 -0.078,-0.013 -0.109,0 -0.03,0.014 -0.055,0.04 -0.079,0.078 -0.011,0.022 -0.035,0.077 -0.064,0.163 -0.037,0.101 -0.066,0.168 -0.088,0.2 -0.019,0.031 -0.041,0.054 -0.066,0.065 -0.026,0.01 -0.053,0.01 -0.084,0 L 0.48,-0.535 0.566,-1.004 C 0.57,-1.025 0.578,-1.039 0.59,-1.047 0.607,-1.057 0.623,-1.059 0.641,-1.053 l 0.091,0.031 0.016,-0.082 -0.51,-0.169 -0.013,0.08 0.078,0.025 c 0.021,0.008 0.035,0.021 0.043,0.037 0.008,0.018 0.008,0.039 0.004,0.062 l -0.18,0.962 c -0.006,0.025 -0.014,0.042 -0.025,0.052 -0.012,0.008 -0.026,0.01 -0.043,0.004 L 0.016,-0.078 0,0 z m 0.465,-0.459 0.086,0.031 c 0.074,0.026 0.129,0.067 0.162,0.131 0.025,0.049 0.016,0.133 0,0.223 C 0.697,0.008 0.67,0.062 0.633,0.088 0.59,0.115 0.531,0.115 0.453,0.089 0.41,0.074 0.385,0.061 0.375,0.045 0.367,0.029 0.367,0 0.373,-0.041 l 0.092,-0.418 z" />
      </g>
      <g
         transform="translate(476.5771,254.8408)"
         id="g510">
        <path
           id="path512"
           style="fill:#096da9;fill-opacity:1;fill-rule:nonzero;stroke:none"
           d="M 0,0 0.818,0.392 0.934,-0.082 0.875,-0.11 C 0.842,-0.016 0.809,0.054 0.777,0.1 0.744,0.147 0.713,0.175 0.68,0.185 0.648,0.196 0.617,0.192 0.582,0.178 0.563,0.169 0.551,0.157 0.543,0.143 0.537,0.129 0.535,0.11 0.539,0.091 l 0.186,-0.958 c 0.002,-0.018 0.009,-0.03 0.021,-0.037 0.01,-0.009 0.024,-0.011 0.035,-0.004 l 0.106,0.05 0.015,-0.078 -0.502,-0.238 -0.013,0.079 0.099,0.048 c 0.016,0.007 0.028,0.019 0.034,0.036 0.005,0.014 0.007,0.031 0.005,0.05 L 0.34,-0.008 C 0.338,0.015 0.328,0.029 0.318,0.034 0.309,0.041 0.291,0.04 0.271,0.031 0.164,-0.019 0.117,-0.186 0.129,-0.464 L 0.074,-0.489 0,0 z" />
      </g>
      <g
         transform="translate(476.3877,254.6348)"
         id="g514">
        <path
           id="path516"
           style="fill:#096da9;fill-opacity:1;fill-rule:nonzero;stroke:none"
           d="M 0,0 0.035,0.144 0.078,0.169 0.166,-0.262 0.111,-0.293 c -0.052,0.108 -0.109,0.178 -0.175,0.211 -0.063,0.031 -0.127,0.031 -0.192,-0.006 -0.053,-0.031 -0.094,-0.076 -0.121,-0.137 -0.025,-0.058 -0.033,-0.118 -0.021,-0.174 0.005,-0.035 0.019,-0.062 0.037,-0.083 0.019,-0.019 0.047,-0.034 0.08,-0.036 0.033,-0.003 0.09,0.005 0.168,0.026 0.092,0.025 0.158,0.036 0.195,0.035 0.059,-0.004 0.107,-0.025 0.145,-0.064 0.037,-0.04 0.062,-0.095 0.076,-0.174 C 0.324,-0.812 0.314,-0.92 0.271,-1.021 0.217,-1.145 0.139,-1.234 0.037,-1.291 -0.059,-1.344 -0.152,-1.348 -0.248,-1.301 l -0.049,-0.164 -0.043,-0.025 -0.088,0.467 0.053,0.029 c 0.104,-0.236 0.236,-0.307 0.402,-0.215 0.065,0.037 0.114,0.088 0.143,0.151 0.029,0.065 0.037,0.127 0.023,0.192 -0.007,0.044 -0.021,0.079 -0.045,0.099 -0.021,0.019 -0.052,0.032 -0.089,0.031 -0.022,-0.001 -0.071,-0.012 -0.149,-0.031 -0.105,-0.026 -0.183,-0.034 -0.232,-0.027 -0.047,0.009 -0.088,0.032 -0.117,0.067 -0.028,0.036 -0.049,0.088 -0.061,0.157 -0.021,0.113 -0.012,0.222 0.027,0.326 0.041,0.103 0.11,0.181 0.203,0.233 C -0.18,0.039 -0.092,0.045 0,0" />
      </g>
      <g
         transform="translate(475.2725,254.1953)"
         id="g518">
        <path
           id="path520"
           style="fill:#096da9;fill-opacity:1;fill-rule:nonzero;stroke:none"
           d="M 0,0 C 0.088,0.043 0.176,0.053 0.262,0.031 0.346,0.01 0.418,-0.039 0.479,-0.118 0.537,-0.195 0.58,-0.299 0.602,-0.422 0.637,-0.611 0.619,-0.789 0.551,-0.959 0.48,-1.129 0.379,-1.245 0.24,-1.311 0.15,-1.354 0.064,-1.365 -0.018,-1.343 -0.1,-1.32 -0.17,-1.27 -0.23,-1.193 c -0.059,0.078 -0.1,0.181 -0.122,0.308 -0.037,0.192 -0.019,0.371 0.047,0.538 C -0.236,-0.18 -0.135,-0.064 0,0 m 0.02,-0.078 c -0.051,-0.026 -0.092,-0.065 -0.122,-0.12 -0.031,-0.054 -0.048,-0.129 -0.056,-0.222 -0.006,-0.093 0.004,-0.211 0.031,-0.353 0.025,-0.153 0.057,-0.262 0.092,-0.331 0.033,-0.068 0.074,-0.11 0.119,-0.129 0.047,-0.021 0.094,-0.017 0.146,0.007 0.077,0.038 0.129,0.109 0.157,0.219 C 0.416,-0.9 0.41,-0.738 0.373,-0.522 0.346,-0.372 0.314,-0.266 0.281,-0.198 0.248,-0.131 0.209,-0.089 0.162,-0.07 0.117,-0.053 0.068,-0.055 0.02,-0.078" />
      </g>
      <g
         transform="translate(473.6943,253.6641)"
         id="g522">
        <path
           id="path524"
           style="fill:#096da9;fill-opacity:1;fill-rule:nonzero;stroke:none"
           d="m 0,0 0.316,0.082 0.745,-0.705 -0.129,0.58 C 0.918,0.015 0.895,0.057 0.861,0.083 0.826,0.111 0.783,0.121 0.734,0.111 L 0.717,0.19 1.088,0.29 1.107,0.212 C 1.057,0.19 1.023,0.161 1.008,0.123 0.992,0.088 0.99,0.038 1.004,-0.023 L 1.221,-0.996 1.139,-1.018 0.291,-0.201 0.441,-0.883 C 0.459,-0.961 0.486,-1.016 0.523,-1.041 0.561,-1.07 0.602,-1.077 0.645,-1.066 L 0.662,-1.063 0.68,-1.139 0.266,-1.25 0.248,-1.171 0.277,-1.164 c 0.039,0.01 0.071,0.039 0.09,0.087 0.02,0.046 0.022,0.1 0.008,0.163 l -0.178,0.806 c -0.041,0.04 -0.086,0.055 -0.136,0.041 L 0.018,-0.08 0,0 z" />
      </g>
      <g
         transform="translate(492.4873,272.4834)"
         id="g526"
         style="fill:#0072aa">
        <path
           id="path528"
           style="fill:#0072aa;fill-opacity:1;fill-rule:nonzero;stroke:none"
           d="m 0,0 c -0.652,-0.216 -1.252,-0.332 -1.818,-0.332 -0.838,0 -1.608,0.226 -2.272,0.62 -1.07,0.643 -1.721,1.82 -1.721,3.201 0,1.006 0.448,2.013 1.262,2.763 0.736,0.674 1.701,1.038 2.781,1.038 0.516,0 1.073,-0.098 1.704,-0.288 l 0,-1.169 c -0.622,0.332 -1.2,0.514 -1.788,0.514 -1.607,0 -2.687,-1.081 -2.687,-2.751 0,-1.828 1.125,-3.039 2.764,-3.039 0.695,0 1.455,0.257 2.32,0.749 L 0,0 z" />
      </g>
      <g
         transform="translate(496.9736,276.0371)"
         id="g530"
         style="fill:#0072aa">
        <path
           id="path532"
           style="fill:#0072aa;fill-opacity:1;fill-rule:nonzero;stroke:none"
           d="m 0,0 c 0,-1.809 1.201,-3.094 2.721,-3.094 1.584,0 2.783,1.211 2.783,2.965 0,1.809 -1.199,3.084 -2.719,3.084 C 1.201,2.955 0,1.756 0,0 m -0.084,-2.848 c -0.738,0.697 -1.156,1.681 -1.156,2.719 0,0.814 0.256,1.596 0.748,2.259 0.76,1.027 1.918,1.595 3.232,1.595 1.147,0 2.153,-0.375 2.85,-1.027 0.75,-0.697 1.156,-1.672 1.156,-2.773 0,-1.006 -0.461,-2.024 -1.273,-2.773 -0.729,-0.674 -1.672,-1.028 -2.733,-1.028 -1.133,0 -2.138,0.386 -2.824,1.028" />
      </g>
      <g
         transform="translate(507.2939,273.6191)"
         id="g534"
         style="fill:#0072aa">
        <path
           id="path536"
           style="fill:#0072aa;fill-opacity:1;fill-rule:nonzero;stroke:none"
           d="m 0,0 0,4.697 c 0,0.547 -0.031,0.932 -0.428,1.274 l 1.991,0 C 1.166,5.629 1.135,5.244 1.135,4.697 l 0,-5.04 c 0.568,-0.087 1.017,-0.13 1.338,-0.13 0.73,0 1.381,0.193 2.011,0.611 l -0.502,-1.425 -4.41,0 C -0.031,-0.934 0,-0.548 0,0" />
      </g>
      <g
         transform="translate(517.2061,281.9365)"
         id="g538"
         style="fill:#0072aa">
        <path
           id="path540"
           style="fill:#0072aa;fill-opacity:1;fill-rule:nonzero;stroke:none"
           d="m 0,0 c 0.195,0.213 0.398,0.32 0.559,0.32 0.212,0 0.394,-0.192 0.394,-0.417 0,-0.215 -0.148,-0.333 -0.437,-0.514 l -1.573,-0.965 -0.388,0 L 0,0 z m -2.248,-8.317 0,4.697 c 0,0.547 -0.033,0.932 -0.428,1.273 l 3.985,0 0,-1.133 c -0.366,0.279 -0.782,0.396 -1.33,0.396 -0.309,0 -0.674,-0.054 -1.081,-0.139 l 0,-2.046 1.778,0 0,-1.059 C 0.463,-6.071 0.1,-6.061 -0.447,-6.061 l -0.655,0 0,-2.599 c 0.557,-0.087 1.008,-0.13 1.329,-0.13 0.738,0 1.38,0.192 2.013,0.61 l -0.502,-1.424 -4.414,0 c 0.395,0.353 0.428,0.739 0.428,1.287" />
      </g>
      <g
         transform="translate(526.1475,278.9814)"
         id="g542"
         style="fill:#0072aa">
        <path
           id="path544"
           style="fill:#0072aa;fill-opacity:1;fill-rule:nonzero;stroke:none"
           d="m 0,0 c -1.67,0 -2.805,-1.179 -2.805,-2.976 0,-1.863 1.145,-3.042 2.987,-3.042 0.437,0 0.91,0.086 1.414,0.247 l 0,1.53 c 0,0.548 -0.033,0.932 -0.43,1.276 l 1.414,0 0,-3.533 C 1.648,-6.714 0.846,-6.82 0.15,-6.82 c -0.972,0 -1.787,0.182 -2.472,0.599 -1.073,0.643 -1.735,1.831 -1.735,3.148 0,1.07 0.44,2.066 1.262,2.827 0.75,0.685 1.713,1.038 2.85,1.038 0.502,0 1.101,-0.075 1.806,-0.225 l 0,-1.157 C 1.242,-0.193 0.654,0 0,0" />
      </g>
      <g
         transform="translate(534.0635,272.332)"
         id="g546"
         style="fill:#0072aa">
        <path
           id="path548"
           style="fill:#0072aa;fill-opacity:1;fill-rule:nonzero;stroke:none"
           d="m 0,0 -1.99,0 c 0.396,0.354 0.427,0.739 0.427,1.287 l 0,4.697 c 0,0.547 -0.031,0.932 -0.427,1.274 l 1.99,0 C -0.396,6.916 -0.428,6.531 -0.428,5.984 l 0,-4.697 C -0.428,0.739 -0.396,0.354 0,0" />
      </g>
      <g
         transform="translate(538.4404,276.0371)"
         id="g550"
         style="fill:#0072aa">
        <path
           id="path552"
           style="fill:#0072aa;fill-opacity:1;fill-rule:nonzero;stroke:none"
           d="m 0,0 c 0,-1.809 1.201,-3.094 2.721,-3.094 1.584,0 2.783,1.211 2.783,2.965 0,1.809 -1.199,3.084 -2.719,3.084 C 1.201,2.955 0,1.756 0,0 m -0.084,-2.848 c -0.738,0.697 -1.156,1.681 -1.156,2.719 0,0.814 0.256,1.596 0.75,2.259 0.758,1.027 1.916,1.595 3.232,1.595 1.145,0 2.151,-0.375 2.846,-1.027 0.752,-0.697 1.158,-1.672 1.158,-2.773 0,-1.006 -0.461,-2.024 -1.273,-2.773 -0.729,-0.674 -1.67,-1.028 -2.731,-1.028 -1.137,0 -2.14,0.386 -2.826,1.028" />
      </g>
      <g
         transform="translate(556.3096,273.0938)"
         id="g554"
         style="fill:#0072aa">
        <path
           id="path556"
           style="fill:#0072aa;fill-opacity:1;fill-rule:nonzero;stroke:none"
           d="m 0,0 c 1.605,0 2.793,1.198 2.793,2.889 0,1.682 -1.102,2.847 -2.869,2.847 -0.363,0 -0.738,-0.053 -1.102,-0.149 l 0,-5.47 C -0.686,0.042 -0.289,0 0,0 m -2.324,0.525 0,4.698 c 0,0.547 -0.022,0.931 -0.416,1.273 l 2.525,0 c 1.168,0 2.053,-0.159 2.91,-0.844 C 3.531,4.988 3.969,4.088 3.969,2.976 3.969,1.979 3.65,1.123 3.018,0.438 c -0.836,-0.91 -1.948,-1.2 -3.577,-1.2 l -2.181,0 c 0.394,0.354 0.416,0.74 0.416,1.287" />
      </g>
      <g
         transform="translate(564.6123,276.0371)"
         id="g558"
         style="fill:#0072aa">
        <path
           id="path560"
           style="fill:#0072aa;fill-opacity:1;fill-rule:nonzero;stroke:none"
           d="m 0,0 c 0,-1.809 1.197,-3.094 2.719,-3.094 1.584,0 2.783,1.211 2.783,2.965 0,1.809 -1.199,3.084 -2.719,3.084 C 1.197,2.955 0,1.756 0,0 m -0.086,-2.848 c -0.738,0.697 -1.156,1.681 -1.156,2.719 0,0.814 0.258,1.596 0.75,2.259 0.758,1.027 1.916,1.595 3.232,1.595 1.147,0 2.153,-0.375 2.848,-1.027 0.748,-0.697 1.156,-1.672 1.156,-2.773 0,-1.006 -0.461,-2.024 -1.273,-2.773 -0.731,-0.674 -1.67,-1.028 -2.731,-1.028 -1.135,0 -2.14,0.386 -2.826,1.028" />
      </g>
      <g
         transform="translate(486.9248,257.0449)"
         id="g562"
         style="fill:#0072aa">
        <path
           id="path564"
           style="fill:#0072aa;fill-opacity:1;fill-rule:nonzero;stroke:none"
           d="m 0,0 c 1.383,-0.923 2.697,-1.384 3.99,-1.384 1.721,0 2.75,0.833 2.75,1.915 0,0.32 -0.107,0.656 -0.302,0.941 C 6.031,2.075 4.984,2.5 3.494,3.245 1.473,4.258 0.426,5.089 0.426,6.633 c 0,1.898 1.615,3.192 4.47,3.192 0.799,0 1.756,-0.105 2.872,-0.318 l 0,-2.022 C 6.795,8.229 5.801,8.602 4.701,8.602 3.264,8.602 2.41,7.91 2.41,7.006 2.41,5.941 3.406,5.408 5.125,4.593 5.926,4.222 6.775,3.865 7.592,3.228 8.318,2.661 8.727,1.827 8.727,0.939 c 0,-1.968 -1.987,-3.706 -4.965,-3.706 -0.957,0 -2.024,0.211 -3.194,0.584 L 0,0 z" />
      </g>
      <g
         transform="translate(503.458,260.3096)"
         id="g566"
         style="fill:#0072aa">
        <path
           id="path568"
           style="fill:#0072aa;fill-opacity:1;fill-rule:nonzero;stroke:none"
           d="M 0,0 -1.703,4.646 -3.549,0 0,0 z m -5.34,-4.86 c 0,-0.25 0.178,-0.516 0.531,-0.854 l -2.836,0 c 0.532,0.373 0.868,0.977 1.207,1.828 l 3.389,8.584 c 0.139,0.337 0.211,0.657 0.211,0.888 0,0.301 -0.142,0.514 -0.426,0.727 l 2.731,0 3.832,-10.074 C 3.547,-4.399 3.83,-5.003 4.664,-5.714 l -3.441,0 c 0.318,0.338 0.515,0.533 0.515,0.781 0,0.32 -0.125,0.605 -0.248,0.941 l -1.029,2.785 -4.488,0 -1.153,-2.873 c -0.105,-0.248 -0.16,-0.514 -0.16,-0.78" />
      </g>
      <g
         transform="translate(514.6807,265.6113)"
         id="g570"
         style="fill:#0072aa">
        <path
           id="path572"
           style="fill:#0072aa;fill-opacity:1;fill-rule:nonzero;stroke:none"
           d="m 0,0 c -2.768,0 -4.648,-1.951 -4.648,-4.932 0,-3.086 1.898,-5.036 4.949,-5.036 0.726,0 1.506,0.141 2.342,0.409 l 0,2.536 c 0,0.904 -0.051,1.543 -0.709,2.111 l 2.341,0 0,-5.854 C 2.73,-11.122 1.4,-11.297 0.248,-11.297 c -1.613,0 -2.963,0.301 -4.1,0.992 -1.771,1.065 -2.871,3.034 -2.871,5.214 0,1.775 0.727,3.424 2.092,4.683 1.242,1.136 2.838,1.721 4.717,1.721 0.836,0 1.828,-0.124 3.002,-0.373 l 0,-1.915 C 2.057,-0.319 1.08,0 0,0" />
      </g>
      <g
         transform="translate(524.2822,254.5957)"
         id="g574"
         style="fill:#0072aa">
        <path
           id="path576"
           style="fill:#0072aa;fill-opacity:1;fill-rule:nonzero;stroke:none"
           d="m 0,0 -3.299,0 c 0.656,0.585 0.711,1.226 0.711,2.129 l 0,7.786 c 0,0.906 -0.055,1.545 -0.711,2.112 l 4.168,0 c 2.467,0 3.973,-1.313 3.973,-3.049 0,-1.527 -1.151,-2.433 -2.694,-3.071 L 5.27,1.739 C 5.623,1.26 6.137,0.711 6.83,0.091 l -0.941,-0.054 -0.141,0 c -0.871,0 -1.756,0.443 -2.342,1.258 l -3.584,4.948 c 2.094,0.464 3.088,1.242 3.088,2.574 0,1.189 -0.904,2.058 -2.306,2.058 -0.299,0 -0.745,-0.054 -1.313,-0.161 l 0,-8.585 C -0.709,1.226 -0.654,0.585 0,0" />
      </g>
      <g
         transform="translate(539.165,260.3096)"
         id="g578"
         style="fill:#0072aa">
        <path
           id="path580"
           style="fill:#0072aa;fill-opacity:1;fill-rule:nonzero;stroke:none"
           d="M 0,0 -1.703,4.646 -3.547,0 0,0 z m -5.338,-4.86 c 0,-0.25 0.178,-0.516 0.533,-0.854 l -2.84,0 c 0.536,0.373 0.872,0.977 1.207,1.828 l 3.387,8.584 c 0.143,0.337 0.213,0.657 0.213,0.888 0,0.301 -0.141,0.514 -0.424,0.727 l 2.729,0 3.834,-10.074 c 0.246,-0.638 0.531,-1.242 1.365,-1.953 l -3.441,0 c 0.318,0.338 0.513,0.533 0.513,0.781 0,0.32 -0.123,0.605 -0.248,0.941 l -1.027,2.785 -4.488,0 -1.153,-2.873 c -0.107,-0.248 -0.16,-0.514 -0.16,-0.78" />
      </g>
      <g
         transform="translate(549.3408,255.8555)"
         id="g582"
         style="fill:#0072aa">
        <path
           id="path584"
           style="fill:#0072aa;fill-opacity:1;fill-rule:nonzero;stroke:none"
           d="m 0,0 c 2.662,0 4.631,1.987 4.631,4.789 0,2.785 -1.826,4.719 -4.752,4.719 -0.604,0 -1.225,-0.09 -1.828,-0.249 l 0,-9.062 C -1.133,0.071 -0.477,0 0,0 m -3.848,0.869 0,7.786 c 0,0.907 -0.035,1.545 -0.691,2.113 l 4.185,0 C 1.58,10.768 3.053,10.5 4.473,9.366 5.854,8.267 6.582,6.775 6.582,4.932 6.582,3.283 6.051,1.862 5.004,0.728 3.621,-0.779 1.775,-1.26 -0.922,-1.26 l -3.617,0 c 0.656,0.585 0.691,1.226 0.691,2.129" />
      </g>
      <g
         transform="translate(559.6123,260.7344)"
         id="g586"
         style="fill:#0072aa">
        <path
           id="path588"
           style="fill:#0072aa;fill-opacity:1;fill-rule:nonzero;stroke:none"
           d="m 0,0 c 0,-2.998 1.986,-5.126 4.504,-5.126 2.625,0 4.613,2.005 4.613,4.912 0,2.998 -1.988,5.11 -4.506,5.11 C 1.986,4.896 0,2.909 0,0 m -0.141,-4.719 c -1.224,1.153 -1.918,2.785 -1.918,4.505 0,1.347 0.426,2.643 1.243,3.743 1.259,1.703 3.175,2.642 5.355,2.642 1.899,0 3.566,-0.619 4.719,-1.702 1.244,-1.153 1.916,-2.766 1.916,-4.595 0,-1.667 -0.762,-3.351 -2.111,-4.593 C 7.857,-5.835 6.295,-6.42 4.539,-6.42 c -1.879,0 -3.547,0.638 -4.68,1.701" />
      </g>
      <g
         transform="translate(496.6318,237.1084)"
         id="g590"
         style="fill:#0072aa">
        <path
           id="path592"
           style="fill:#0072aa;fill-opacity:1;fill-rule:nonzero;stroke:none"
           d="m 0,0 c -1.082,-0.354 -2.074,-0.549 -3.016,-0.549 -1.384,0 -2.66,0.372 -3.759,1.028 -1.774,1.066 -2.856,3.016 -2.856,5.303 0,1.668 0.744,3.334 2.092,4.576 1.225,1.117 2.822,1.721 4.613,1.721 0.852,0 1.774,-0.159 2.819,-0.478 l 0,-1.935 c -1.03,0.552 -1.987,0.852 -2.961,0.852 -2.662,0 -4.453,-1.791 -4.453,-4.559 0,-3.032 1.863,-5.036 4.578,-5.036 1.15,0 2.412,0.425 3.847,1.242 L 0,0 z" />
      </g>
      <g
         transform="translate(500.3369,242.9971)"
         id="g594"
         style="fill:#0072aa">
        <path
           id="path596"
           style="fill:#0072aa;fill-opacity:1;fill-rule:nonzero;stroke:none"
           d="m 0,0 c 0,-2.998 1.986,-5.126 4.506,-5.126 2.623,0 4.611,2.005 4.611,4.913 0,2.997 -1.988,5.108 -4.506,5.108 C 1.986,4.895 0,2.908 0,0 m -0.143,-4.718 c -1.222,1.153 -1.916,2.783 -1.916,4.505 0,1.347 0.426,2.642 1.243,3.741 1.257,1.703 3.175,2.643 5.357,2.643 1.897,0 3.564,-0.619 4.717,-1.701 1.242,-1.154 1.916,-2.767 1.916,-4.593 0,-1.669 -0.762,-3.355 -2.111,-4.595 -1.206,-1.117 -2.766,-1.703 -4.522,-1.703 -1.881,0 -3.549,0.641 -4.684,1.703" />
      </g>
      <g
         transform="translate(516.3096,236.8594)"
         id="g598"
         style="fill:#0072aa">
        <path
           id="path600"
           style="fill:#0072aa;fill-opacity:1;fill-rule:nonzero;stroke:none"
           d="m 0,0 -3.301,0 c 0.656,0.587 0.709,1.224 0.709,2.129 l 0,7.786 c 0,0.906 -0.053,1.544 -0.709,2.11 l 4.17,0 c 2.467,0 3.973,-1.312 3.973,-3.049 0,-1.527 -1.151,-2.431 -2.694,-3.068 L 5.27,1.739 C 5.623,1.26 6.137,0.711 6.83,0.088 l -0.941,-0.05 -0.141,0 C 4.879,0.038 3.99,0.48 3.406,1.295 l -3.584,4.949 c 2.094,0.462 3.086,1.242 3.086,2.571 0,1.189 -0.902,2.058 -2.304,2.058 -0.303,0 -0.747,-0.052 -1.313,-0.16 l 0,-8.584 C -0.709,1.224 -0.658,0.587 0,0" />
      </g>
      <g
         transform="translate(530.9639,242.5723)"
         id="g602"
         style="fill:#0072aa">
        <path
           id="path604"
           style="fill:#0072aa;fill-opacity:1;fill-rule:nonzero;stroke:none"
           d="M 0,0 -1.703,4.646 -3.549,0 0,0 z m -5.34,-4.86 c 0,-0.25 0.178,-0.516 0.531,-0.853 l -2.836,0 c 0.53,0.373 0.868,0.977 1.207,1.829 l 3.387,8.582 c 0.141,0.338 0.211,0.656 0.211,0.888 0,0.303 -0.142,0.516 -0.426,0.727 l 2.733,0 3.83,-10.073 c 0.248,-0.639 0.531,-1.242 1.367,-1.953 l -3.441,0 c 0.318,0.337 0.513,0.532 0.513,0.781 0,0.32 -0.123,0.604 -0.248,0.941 l -1.027,2.784 -4.488,0 -1.155,-2.873 C -5.287,-4.328 -5.34,-4.595 -5.34,-4.86" />
      </g>
      <g
         transform="translate(539.3818,234.1992)"
         id="g606"
         style="fill:#0072aa">
        <path
           id="path608"
           style="fill:#0072aa;fill-opacity:1;fill-rule:nonzero;stroke:none"
           d="m 0,0 c 0.729,-0.461 1.436,-0.674 2.004,-0.674 0.656,0 0.957,0.25 0.957,0.78 0,0.498 -0.318,0.747 -0.94,0.747 -0.158,0 -0.335,-0.02 -0.531,-0.055 l 0,1.706 0.551,0 0,-0.997 c 0.176,0.034 0.354,0.034 0.531,0.034 1.03,0 1.631,-0.549 1.631,-1.435 0,-0.958 -0.709,-1.543 -1.951,-1.543 -0.709,0 -1.559,0.232 -2.588,0.658 L 0,0 z M 5.48,2.909 C 4.4,2.556 3.404,2.36 2.465,2.36 c -1.383,0 -2.66,0.372 -3.758,1.028 -1.777,1.066 -2.857,3.016 -2.857,5.303 0,1.668 0.744,3.334 2.093,4.577 1.221,1.116 2.821,1.72 4.612,1.72 0.849,0 1.773,-0.159 2.818,-0.478 l 0,-1.935 c -1.027,0.552 -1.986,0.852 -2.961,0.852 -2.66,0 -4.453,-1.791 -4.453,-4.559 0,-3.032 1.863,-5.036 4.578,-5.036 1.152,0 2.412,0.425 3.848,1.242 L 5.48,2.909 z" />
      </g>
      <g
         transform="translate(553.5303,242.5723)"
         id="g610"
         style="fill:#0072aa">
        <path
           id="path612"
           style="fill:#0072aa;fill-opacity:1;fill-rule:nonzero;stroke:none"
           d="M 0,0 -1.703,4.646 -3.549,0 0,0 z m -5.34,-4.86 c 0,-0.25 0.178,-0.516 0.533,-0.853 l -2.836,0 c 0.53,0.373 0.868,0.977 1.204,1.829 l 3.388,8.582 c 0.143,0.338 0.213,0.656 0.213,0.888 0,0.303 -0.142,0.516 -0.426,0.727 l 2.731,0 L 3.301,-3.76 C 3.547,-4.399 3.83,-5.002 4.664,-5.713 l -3.439,0 c 0.318,0.337 0.513,0.532 0.513,0.781 0,0.32 -0.125,0.604 -0.248,0.941 l -1.029,2.784 -4.488,0 -1.151,-2.873 C -5.285,-4.328 -5.34,-4.595 -5.34,-4.86" />
      </g>
      <g
         transform="translate(559.8584,242.9971)"
         id="g614"
         style="fill:#0072aa">
        <path
           id="path616"
           style="fill:#0072aa;fill-opacity:1;fill-rule:nonzero;stroke:none"
           d="m 0,0 c 0,-2.998 1.984,-5.126 4.504,-5.126 2.625,0 4.611,2.005 4.611,4.913 0,2.997 -1.986,5.108 -4.506,5.108 C 1.984,4.895 0,2.908 0,0 m -0.143,-4.718 c -1.224,1.153 -1.918,2.783 -1.918,4.505 0,1.347 0.426,2.642 1.243,3.741 1.259,1.703 3.175,2.643 5.355,2.643 1.899,0 3.567,-0.619 4.719,-1.701 1.242,-1.154 1.914,-2.767 1.914,-4.593 0,-1.669 -0.762,-3.355 -2.109,-4.595 -1.204,-1.117 -2.768,-1.703 -4.524,-1.703 -1.877,0 -3.545,0.641 -4.68,1.703" />
      </g>
      <g
         transform="translate(492.4775,220.3828)"
         id="g618"
         style="fill:#0072aa">
        <path
           id="path620"
           style="fill:#0072aa;fill-opacity:1;fill-rule:nonzero;stroke:none"
           d="m 0,0 c 2.66,0 4.629,1.986 4.629,4.789 0,2.783 -1.828,4.718 -4.756,4.718 -0.6,0 -1.223,-0.088 -1.824,-0.249 l 0,-9.063 C -1.137,0.071 -0.48,0 0,0 m -3.85,0.87 0,7.785 c 0,0.907 -0.035,1.545 -0.691,2.112 l 4.184,0 C 1.576,10.767 3.049,10.5 4.467,9.365 5.852,8.265 6.58,6.777 6.58,4.931 6.58,3.283 6.047,1.862 5,0.728 3.617,-0.779 1.773,-1.258 -0.924,-1.258 l -3.617,0 c 0.656,0.584 0.691,1.222 0.691,2.128" />
      </g>
      <g
         transform="translate(501.2568,221.2529)"
         id="g622"
         style="fill:#0072aa">
        <path
           id="path624"
           style="fill:#0072aa;fill-opacity:1;fill-rule:nonzero;stroke:none"
           d="M 0,0 0,7.785 C 0,8.691 -0.055,9.33 -0.711,9.896 l 6.598,0 0,-1.879 C 5.285,8.478 4.592,8.673 3.688,8.673 3.174,8.673 2.57,8.584 1.896,8.442 l 0,-3.387 2.944,0 0,-1.755 C 4.486,3.723 3.883,3.742 2.979,3.742 l -1.083,0 0,-4.312 c 0.922,-0.138 1.668,-0.209 2.2,-0.209 1.222,0 2.287,0.317 3.334,1.008 l -0.832,-2.357 -7.309,0 C -0.055,-1.544 0,-0.906 0,0" />
      </g>
      <g
         transform="translate(515.1787,221.1621)"
         id="g626"
         style="fill:#0072aa">
        <path
           id="path628"
           style="fill:#0072aa;fill-opacity:1;fill-rule:nonzero;stroke:none"
           d="m 0,0 1.207,8.09 c 0.055,0.337 0.088,0.622 0.088,0.851 0,0.443 -0.193,0.656 -0.604,1.046 l 3.071,0 3.599,-8.922 3.532,8.922 2.925,0 c -0.371,-0.338 -0.513,-0.709 -0.513,-1.24 0,-0.143 0,-0.339 0.035,-0.621 l 1.047,-8.248 c 0.088,-0.746 0.316,-1.351 0.851,-1.915 l -3.263,0 c 0.443,0.337 0.656,0.779 0.656,1.364 0,0.089 0,0.194 -0.02,0.302 L 11.637,8.09 7.469,-2.18 C 6.76,-1.737 6.332,-1.028 5.926,-0.052 L 2.572,8.055 1.385,0.126 c -0.055,-0.372 -0.09,-0.639 -0.09,-0.799 0,-0.585 0.195,-0.94 0.728,-1.364 l -3.052,0 C -0.408,-1.4 -0.123,-0.795 0,0" />
      </g>
      <g
         transform="translate(538.5811,224.8359)"
         id="g630"
         style="fill:#0072aa">
        <path
           id="path632"
           style="fill:#0072aa;fill-opacity:1;fill-rule:nonzero;stroke:none"
           d="M 0,0 -1.701,4.646 -3.545,0 0,0 z m -5.338,-4.861 c 0,-0.248 0.178,-0.513 0.531,-0.85 l -2.836,0 c 0.532,0.371 0.868,0.974 1.205,1.826 l 3.387,8.583 c 0.143,0.34 0.213,0.658 0.213,0.888 0,0.302 -0.142,0.516 -0.424,0.727 l 2.731,0 3.83,-10.074 c 0.248,-0.637 0.533,-1.242 1.367,-1.95 l -3.441,0 c 0.318,0.337 0.515,0.529 0.515,0.779 0,0.321 -0.125,0.604 -0.25,0.942 l -1.027,2.785 -4.488,0 -1.155,-2.876 c -0.107,-0.247 -0.158,-0.514 -0.158,-0.78" />
      </g>
      <g
         transform="translate(547.3486,219.125)"
         id="g634"
         style="fill:#0072aa">
        <path
           id="path636"
           style="fill:#0072aa;fill-opacity:1;fill-rule:nonzero;stroke:none"
           d="m 0,0 -3.301,0 c 0.658,0.584 0.713,1.222 0.713,2.128 l 0,7.785 c 0,0.906 -0.055,1.545 -0.713,2.111 l 4.168,0 c 2.467,0 3.973,-1.312 3.973,-3.05 0,-1.525 -1.151,-2.43 -2.694,-3.069 L 5.268,1.737 C 5.621,1.258 6.137,0.708 6.828,0.087 l -0.941,-0.053 -0.141,0 c -0.869,0 -1.754,0.445 -2.34,1.259 l -3.584,4.949 c 2.092,0.463 3.088,1.242 3.088,2.572 0,1.188 -0.904,2.057 -2.308,2.057 -0.299,0 -0.745,-0.052 -1.311,-0.159 l 0,-8.584 C -0.709,1.222 -0.658,0.584 0,0" />
      </g>
      <g
         transform="translate(558.4736,219.125)"
         id="g638"
         style="fill:#0072aa">
        <path
           id="path640"
           style="fill:#0072aa;fill-opacity:1;fill-rule:nonzero;stroke:none"
           d="m 0,0 -3.299,0 c 0.654,0.584 0.709,1.222 0.709,2.128 l 0,7.785 c 0,0.906 -0.055,1.545 -0.709,2.111 l 3.299,0 C -0.656,11.458 -0.711,10.819 -0.711,9.913 l 0,-7.785 C -0.711,1.222 -0.656,0.584 0,0" />
      </g>
      <g
         transform="translate(566.9912,224.8359)"
         id="g642"
         style="fill:#0072aa">
        <path
           id="path644"
           style="fill:#0072aa;fill-opacity:1;fill-rule:nonzero;stroke:none"
           d="M 0,0 -1.701,4.646 -3.547,0 0,0 z m -5.338,-4.861 c 0,-0.248 0.176,-0.513 0.529,-0.85 l -2.836,0 c 0.532,0.371 0.87,0.974 1.207,1.826 l 3.387,8.583 c 0.143,0.34 0.213,0.658 0.213,0.888 0,0.302 -0.142,0.516 -0.428,0.727 l 2.733,0 3.832,-10.074 c 0.248,-0.637 0.531,-1.242 1.365,-1.95 l -3.439,0 c 0.318,0.337 0.513,0.529 0.513,0.779 0,0.321 -0.125,0.604 -0.248,0.942 l -1.027,2.785 -4.488,0 -1.155,-2.876 c -0.107,-0.247 -0.158,-0.514 -0.158,-0.78" />
      </g>
      <g
         transform="translate(552.6338,249.8838)"
         id="g646"
         style="fill:#0072aa">
        <path
           id="path648"
           style="fill:#0072aa;fill-opacity:1;fill-rule:nonzero;stroke:none"
           d="m 0,0 c -0.143,0 -0.303,0.018 -0.461,0.052 l -0.922,0.214 c -0.23,0.053 -0.373,0.088 -0.463,0.088 -0.494,0 -0.726,-0.212 -0.884,-0.782 l -0.499,0 c 0.268,1.351 0.817,2.006 1.704,2.006 0.16,0 0.355,-0.017 0.55,-0.07 l 0.938,-0.25 C 0.105,1.223 0.248,1.223 0.408,1.223 c 0.391,0 0.637,0.231 0.762,0.745 l 0.498,0 C 1.42,0.656 0.834,0 0,0" />
      </g>
      <g
         transform="translate(491.0127,206.7061)"
         id="g650"
         style="fill:#0072aa">
        <path
           id="path652"
           style="fill:#0072aa;fill-opacity:1;fill-rule:nonzero;stroke:none"
           d="m 0,0 c 0.762,-0.044 1.424,0.214 1.984,0.686 l 0.034,0 -0.582,-1.492 -4.606,0 0,0.034 c 0.572,0.201 0.504,1.03 0.504,1.535 l 0,4.224 c 0,0.515 0.068,1.332 -0.504,1.546 l 0,0.032 2.139,0 0,-0.032 C -1.602,6.319 -1.523,5.49 -1.523,4.987 l 0,-4.884 L 0,0 z" />
      </g>
      <g
         transform="translate(505.3271,211.6934)"
         id="g654"
         style="fill:#0072aa">
        <path
           id="path656"
           style="fill:#0072aa;fill-opacity:1;fill-rule:nonzero;stroke:none"
           d="m 0,0 c 0,0.515 0.078,1.332 -0.494,1.546 l 0,0.032 2.129,0 0,-0.032 C 1.074,1.332 1.143,0.503 1.143,0 l 0,-4.225 c 0,-0.504 -0.069,-1.321 0.492,-1.535 l 0,-0.033 -2.129,0 0,0.033 C 0.066,-5.559 0,-4.729 0,-4.225 L 0,0 z" />
      </g>
      <g
         transform="translate(523.376,211.9385)"
         id="g658"
         style="fill:#0072aa">
        <path
           id="path660"
           style="fill:#0072aa;fill-opacity:1;fill-rule:nonzero;stroke:none"
           d="m 0,0 c -0.438,0.448 -1.131,0.706 -1.76,0.706 -0.638,0 -1.443,-0.245 -1.443,-1.019 0,-1.535 3.851,-1.513 3.851,-3.584 0,-1.199 -1.253,-2.32 -3.002,-2.32 -0.683,0 -1.365,0.101 -2.003,0.335 l -0.327,1.403 c 0.661,-0.573 1.579,-0.931 2.455,-0.931 0.637,0 1.6,0.382 1.6,1.164 0,1.749 -3.851,1.434 -3.851,3.81 0,1.411 1.443,1.95 2.81,1.95 0.561,0 1.131,-0.079 1.67,-0.248 L 0,0 z" />
      </g>
      <g
         transform="translate(536.5791,206.7061)"
         id="g662"
         style="fill:#0072aa">
        <path
           id="path664"
           style="fill:#0072aa;fill-opacity:1;fill-rule:nonzero;stroke:none"
           d="m 0,0 c 0.918,-0.088 1.848,0.338 1.848,1.401 0,1.087 -1.053,1.558 -2.037,1.502 L -0.975,2.857 -0.975,0.09 0,0 z m -0.605,3.597 c 0.728,0 1.771,0.247 1.771,1.168 0,0.77 -0.717,1.173 -1.391,1.107 l -0.75,-0.078 0,-2.197 0.37,0 z m -1.512,1.401 c 0,0.504 0.078,1.321 -0.492,1.535 l 0,0.032 2.654,0 C 1.523,6.565 2.387,5.938 2.387,4.941 2.387,4.191 1.904,3.766 1.266,3.485 2.273,3.272 3.092,2.601 3.092,1.502 3.092,0.639 2.498,-0.1 1.748,-0.458 0.965,-0.839 0.078,-0.806 -0.762,-0.806 l -1.847,0 0,0.034 c 0.558,0.213 0.492,1.03 0.492,1.545 l 0,4.225 z" />
      </g>
      <g
         transform="translate(549.4521,209.71)"
         id="g666"
         style="fill:#0072aa">
        <path
           id="path668"
           style="fill:#0072aa;fill-opacity:1;fill-rule:nonzero;stroke:none"
           d="m 0,0 c 0,-1.569 1.111,-3.182 2.867,-3.182 1.703,0 2.791,1.244 2.791,2.913 0,1.636 -1.041,3.215 -2.812,3.215 C 1.111,2.946 0,1.692 0,0 m 6.936,-0.045 c 0,-2.286 -1.893,-3.943 -4.123,-3.943 -2.219,0 -4.09,1.59 -4.09,3.887 0,2.129 1.847,3.91 4.203,3.854 2.351,0.013 4.01,-1.781 4.01,-3.798" />
      </g>
      <g
         transform="translate(567.5693,212.3203)"
         id="g670"
         style="fill:#0072aa">
        <path
           id="path672"
           style="fill:#0072aa;fill-opacity:1;fill-rule:nonzero;stroke:none"
           d="m 0,0 -1.109,-2.823 2.207,0 L 0,0 z m -1.4,-3.652 -0.584,-1.581 c -0.235,-0.625 -0.313,-0.953 0.224,-1.154 l 0,-0.033 -2.06,0 0,0.033 c 0.648,0.324 0.84,0.953 1.086,1.592 l 1.871,4.671 c 0.156,0.404 0.369,0.875 -0.168,1.043 l 0,0.032 1.769,0 2.332,-5.746 c 0.256,-0.639 0.459,-1.268 1.096,-1.592 l 0,-0.033 -2.295,0 0,0.033 c 0.549,0.247 0.457,0.371 0.156,1.154 l -0.605,1.581 -2.822,0 z" />
      </g>
    </g>
  </g>
</svg>
